<svg fill="none" xmlns="http://www.w3.org/2000/svg" viewBox="0 0 242 302">
<title>First floor floorplan, featuring large master bedroom and two additional bedrooms</title><path d="M161 81h-20v40H81v20h80V81z" stroke="#000"/><path fill="#E6FBFD" stroke="#000" d="M81 141h40v60H81z"/><path fill="#E4FFF1" stroke="#000" d="M121 141h40v60h-40z"/><path fill="#E6FBFD" stroke="#000" d="M161 121h60v100h-60zM1 121h80v100H1z"/><path stroke="#000" stroke-dasharray="2 2" d="M1 221h80v80H1z"/><path stroke="#000" d="M141 97h20v4h-20zM141 93h20v4h-20zM141 101h20v4h-20zM141 105h20v4h-20zM141 89h20v4h-20zM141 113h20v4h-20zM141 109h20v4h-20zM141 85h20v4h-20z"/><path d="M150.646 129.354a.502.502 0 00.708 0l3.182-3.182a.502.502 0 00-.708-.708L151 128.293l-2.828-2.829a.502.502 0 00-.708.708l3.182 3.182zM150.5 107v22h1v-22h-1zM34.772 162.32c.101 0 .178.032.232.096a.325.325 0 01.088.24v5.064a.332.332 0 01-.08.232.286.286 0 01-.224.088c-.096 0-.168-.029-.216-.088a.356.356 0 01-.072-.232v-4.088l-1.736 3.328c-.075.155-.184.232-.328.232-.139 0-.248-.077-.328-.232l-1.744-3.288v4.048a.332.332 0 01-.08.232c-.048.059-.12.088-.216.088a.286.286 0 01-.224-.088.332.332 0 01-.08-.232v-5.064c0-.101.029-.181.088-.24a.31.31 0 01.24-.096c.133 0 .24.077.32.232l2.032 3.896 2.008-3.896a.45.45 0 01.136-.176.315.315 0 01.184-.056zm2.88 1.688c.977 0 1.465.512 1.465 1.536v2.176c0 .096-.03.173-.088.232a.286.286 0 01-.224.088.312.312 0 01-.232-.088.314.314 0 01-.088-.232v-.384a1.169 1.169 0 01-.464.536 1.387 1.387 0 01-.72.184c-.25 0-.483-.051-.696-.152a1.243 1.243 0 01-.496-.424 1.047 1.047 0 01-.184-.6c0-.293.075-.52.224-.68.15-.165.395-.283.736-.352.341-.075.816-.112 1.424-.112h.176v-.264c0-.32-.067-.555-.2-.704-.128-.149-.339-.224-.632-.224-.363 0-.73.099-1.104.296-.144.091-.245.136-.304.136a.205.205 0 01-.16-.072.266.266 0 01-.064-.184c0-.075.021-.139.064-.192a.818.818 0 01.224-.176 2.48 2.48 0 01.632-.248c.24-.064.477-.096.712-.096zm-.263 3.536c.32 0 .581-.107.784-.32.208-.219.312-.499.312-.84v-.232h-.144c-.47 0-.827.021-1.072.064-.245.037-.421.104-.528.2-.101.091-.152.227-.152.408a.68.68 0 00.224.52c.155.133.347.2.576.2zm3.893.512c-.245 0-.48-.029-.704-.088a2.142 2.142 0 01-.584-.248.94.94 0 01-.208-.176.38.38 0 01-.056-.208c0-.069.019-.125.056-.168a.205.205 0 01.16-.072c.064 0 .157.04.28.12.16.096.317.173.472.232.16.053.357.08.592.08.288 0 .512-.051.672-.152a.49.49 0 00.24-.44.42.42 0 00-.088-.28.674.674 0 00-.304-.192 3.932 3.932 0 00-.632-.176c-.47-.101-.805-.237-1.008-.408-.203-.171-.304-.403-.304-.696 0-.229.064-.432.192-.608s.304-.315.528-.416c.23-.101.488-.152.776-.152.208 0 .408.029.6.088.197.053.37.131.52.232.181.128.272.261.272.4a.256.256 0 01-.064.176.197.197 0 01-.152.072c-.064 0-.16-.045-.288-.136a2.508 2.508 0 00-.424-.224 1.349 1.349 0 00-.496-.08c-.25 0-.453.056-.608.168a.532.532 0 00-.224.448c0 .117.027.213.08.288a.809.809 0 00.28.192c.133.053.323.107.568.16.362.08.642.168.84.264.203.096.346.213.432.352a.995.995 0 01.128.528.968.968 0 01-.424.816c-.283.203-.656.304-1.12.304zm3.96-.528c.186.016.28.101.28.256 0 .091-.035.16-.105.208-.064.043-.163.059-.296.048l-.216-.016c-.427-.032-.741-.16-.944-.384-.203-.224-.304-.563-.304-1.016v-2.008h-.536a.334.334 0 01-.216-.064.249.249 0 01-.072-.184.26.26 0 01.072-.192.311.311 0 01.216-.072h.536v-.904c0-.101.03-.179.088-.232a.323.323 0 01.24-.088c.096 0 .173.029.232.088.059.053.088.131.088.232v.904h.888a.27.27 0 01.2.072c.053.048.08.112.08.192a.236.236 0 01-.08.184.289.289 0 01-.2.064h-.888v2.04c0 .293.059.507.176.64.123.128.304.2.544.216l.216.016zm3.6-.432c.06 0 .11.024.153.072a.266.266 0 01.064.184c0 .133-.094.256-.28.368a2.55 2.55 0 01-.608.256c-.214.053-.422.08-.624.08-.603 0-1.08-.179-1.432-.536-.347-.357-.52-.851-.52-1.48 0-.4.077-.752.232-1.056.154-.309.37-.549.648-.72.282-.171.602-.256.96-.256.506 0 .909.165 1.208.496.298.331.448.779.448 1.344 0 .107-.022.184-.064.232-.043.048-.112.072-.208.072h-2.576c.048.917.482 1.376 1.304 1.376.208 0 .386-.027.536-.08.149-.059.309-.136.48-.232.138-.08.232-.12.28-.12zm-1.4-2.584c-.34 0-.615.107-.823.32-.203.213-.323.515-.36.904h2.264c-.011-.395-.11-.696-.296-.904-.187-.213-.448-.32-.784-.32zm4.198-.488c.224-.016.336.075.336.272a.3.3 0 01-.072.208c-.048.048-.13.077-.248.088l-.24.024c-.357.032-.624.16-.8.384-.17.219-.256.477-.256.776v1.944c0 .107-.03.187-.088.24a.333.333 0 01-.232.08.364.364 0 01-.24-.08.325.325 0 01-.088-.24v-3.376c0-.101.032-.179.096-.232a.33.33 0 01.232-.088c.085 0 .157.029.216.088a.287.287 0 01.088.224v.448c.112-.235.27-.413.472-.536a1.63 1.63 0 01.712-.216l.112-.008zm-22.592 12.08c.326.085.576.245.752.48.182.235.272.528.272.88 0 .496-.162.877-.488 1.144-.325.261-.786.392-1.384.392h-2.016a.351.351 0 01-.248-.088.314.314 0 01-.088-.232v-5c0-.096.03-.173.088-.232a.351.351 0 01.248-.088h1.928c.582 0 1.032.128 1.352.384.32.256.48.619.48 1.088 0 .304-.08.565-.24.784a1.37 1.37 0 01-.656.488zm-2.552-.24h1.52c.422 0 .739-.085.952-.256.219-.171.328-.419.328-.744 0-.64-.426-.96-1.28-.96h-1.52v1.96zm1.64 2.592c.443 0 .768-.08.976-.24.214-.165.32-.421.32-.768 0-.693-.432-1.04-1.296-1.04h-1.64v2.048h1.64zm5.69-.36c.058 0 .109.024.152.072a.266.266 0 01.064.184c0 .133-.094.256-.28.368a2.549 2.549 0 01-.608.256c-.214.053-.422.08-.624.08-.603 0-1.08-.179-1.432-.536-.347-.357-.52-.851-.52-1.48 0-.4.077-.752.232-1.056.154-.309.37-.549.648-.72.282-.171.602-.256.96-.256.506 0 .909.165 1.208.496.298.331.448.779.448 1.344 0 .107-.022.184-.064.232-.043.048-.112.072-.208.072h-2.576c.048.917.482 1.376 1.304 1.376.208 0 .386-.027.536-.08.149-.059.309-.136.48-.232.138-.08.232-.12.28-.12zm-1.4-2.584c-.342 0-.616.107-.824.32-.203.213-.323.515-.36.904h2.264c-.011-.395-.11-.696-.296-.904-.187-.213-.448-.32-.784-.32zm5.397-2.192c.101 0 .181.029.24.088a.304.304 0 01.088.224v5.088c0 .096-.03.173-.088.232a.323.323 0 01-.24.088.323.323 0 01-.24-.088.332.332 0 01-.08-.232v-.432a1.28 1.28 0 01-.52.568c-.224.133-.488.2-.792.2-.341 0-.643-.085-.904-.256a1.696 1.696 0 01-.608-.712 2.514 2.514 0 01-.216-1.072c0-.4.072-.752.216-1.056.144-.304.347-.539.608-.704.261-.165.563-.248.904-.248.304 0 .568.067.792.2.23.133.403.323.52.568v-2.144c0-.096.027-.171.08-.224a.323.323 0 01.24-.088zm-1.504 5.2c.379 0 .67-.128.872-.384.208-.261.312-.629.312-1.104 0-.475-.104-.84-.312-1.096-.203-.256-.493-.384-.872-.384s-.675.128-.888.384c-.208.256-.312.616-.312 1.08 0 .475.104.845.312 1.112.213.261.51.392.888.392zm4.627-3.496c.224-.016.336.075.336.272a.3.3 0 01-.072.208c-.048.048-.13.077-.248.088l-.24.024c-.357.032-.624.16-.8.384-.17.219-.256.477-.256.776v1.944c0 .107-.03.187-.088.24a.333.333 0 01-.232.08.364.364 0 01-.24-.08.325.325 0 01-.088-.24v-3.376c0-.101.032-.179.096-.232a.33.33 0 01.232-.088c.085 0 .157.029.216.088a.287.287 0 01.088.224v.448c.112-.235.27-.413.472-.536a1.63 1.63 0 01.712-.216l.112-.008zm2.097 4.032a1.9 1.9 0 01-.976-.248 1.69 1.69 0 01-.648-.704 2.438 2.438 0 01-.224-1.072c0-.405.075-.76.224-1.064.155-.309.37-.547.648-.712a1.9 1.9 0 01.976-.248 1.9 1.9 0 01.976.248c.282.165.498.403.648.712.154.304.232.659.232 1.064s-.078.763-.232 1.072c-.15.304-.366.539-.648.704a1.9 1.9 0 01-.976.248zm0-.536c.384 0 .677-.125.88-.376.208-.256.312-.627.312-1.112 0-.475-.104-.84-.312-1.096-.208-.261-.502-.392-.88-.392-.379 0-.672.131-.88.392-.208.256-.312.621-.312 1.096 0 .48.101.848.304 1.104.208.256.504.384.888.384zm4.104.536a1.9 1.9 0 01-.976-.248 1.69 1.69 0 01-.648-.704 2.438 2.438 0 01-.224-1.072c0-.405.075-.76.224-1.064.155-.309.37-.547.648-.712a1.9 1.9 0 01.976-.248 1.9 1.9 0 01.976.248c.283.165.499.403.648.712.155.304.232.659.232 1.064s-.077.763-.232 1.072c-.15.304-.365.539-.648.704a1.9 1.9 0 01-.976.248zm0-.536c.384 0 .677-.125.88-.376.208-.256.312-.627.312-1.112 0-.475-.104-.84-.312-1.096-.208-.261-.501-.392-.88-.392s-.672.131-.88.392c-.208.256-.312.621-.312 1.096 0 .48.101.848.304 1.104.208.256.504.384.888.384zm6.824-3.512c.864 0 1.296.515 1.296 1.544v2.168c0 .101-.03.181-.088.24a.333.333 0 01-.232.08.364.364 0 01-.24-.08.325.325 0 01-.088-.24v-2.152c0-.357-.064-.616-.192-.776-.128-.16-.328-.24-.6-.24-.325 0-.581.109-.768.328-.186.219-.28.515-.28.888v1.952a.31.31 0 01-.096.24.333.333 0 01-.232.08.333.333 0 01-.232-.08.325.325 0 01-.088-.24v-2.152c0-.357-.064-.616-.192-.776-.128-.16-.33-.24-.608-.24-.32 0-.576.109-.768.328-.187.219-.28.515-.28.888v1.952c0 .101-.03.181-.088.24a.333.333 0 01-.232.08.364.364 0 01-.24-.08.325.325 0 01-.088-.24v-3.376c0-.096.03-.173.088-.232a.34.34 0 01.24-.088c.09 0 .166.029.224.088a.287.287 0 01.088.224v.384a1.27 1.27 0 01.488-.528c.208-.123.448-.184.72-.184.608 0 1.006.256 1.192.768.112-.235.283-.421.512-.56.23-.139.49-.208.784-.208zM95.685 165.104c.325.085.576.245.752.48.181.235.272.528.272.88 0 .496-.163.877-.488 1.144-.325.261-.787.392-1.384.392h-2.016a.351.351 0 01-.248-.088.314.314 0 01-.088-.232v-5c0-.096.03-.173.088-.232a.351.351 0 01.248-.088h1.928c.581 0 1.032.128 1.352.384.32.256.48.619.48 1.088 0 .304-.08.565-.24.784a1.37 1.37 0 01-.656.488zm-2.552-.24h1.52c.421 0 .739-.085.952-.256.219-.171.328-.419.328-.744 0-.64-.427-.96-1.28-.96h-1.52v1.96zm1.64 2.592c.443 0 .768-.08.976-.24.213-.165.32-.421.32-.768 0-.693-.432-1.04-1.296-1.04h-1.64v2.048h1.64zm5.633-3.432c.102 0 .179.029.232.088a.313.313 0 01.088.232v3.384a.302.302 0 01-.088.224c-.053.059-.13.088-.232.088a.334.334 0 01-.232-.08.322.322 0 01-.08-.224v-.4a1.259 1.259 0 01-.52.536 1.491 1.491 0 01-.744.184c-.464 0-.813-.128-1.048-.384-.234-.261-.352-.645-.352-1.152v-2.176c0-.096.03-.173.088-.232a.323.323 0 01.24-.088c.102 0 .179.029.232.088a.314.314 0 01.088.232v2.16c0 .347.07.603.208.768.139.16.358.24.656.24.342 0 .616-.109.824-.328.208-.224.312-.517.312-.88v-1.96c0-.096.03-.173.088-.232a.324.324 0 01.24-.088zm3.151-.016c.934 0 1.4.515 1.4 1.544v2.168a.324.324 0 01-.088.24c-.053.053-.13.08-.232.08a.346.346 0 01-.24-.08.328.328 0 01-.088-.24v-2.128c0-.363-.072-.627-.216-.792-.138-.165-.362-.248-.672-.248-.357 0-.642.109-.856.328-.213.219-.32.515-.32.888v1.952a.324.324 0 01-.088.24c-.053.053-.13.08-.232.08a.346.346 0 01-.24-.08.328.328 0 01-.088-.24v-3.376c0-.096.03-.173.088-.232a.324.324 0 01.24-.088c.096 0 .171.029.224.088a.302.302 0 01.088.224v.408a1.29 1.29 0 01.536-.544c.23-.128.491-.192.784-.192zm5.366 3.48c.085.08.128.165.128.256 0 .08-.029.149-.088.208a.257.257 0 01-.2.088c-.069 0-.141-.032-.216-.096l-2.088-1.8v1.576a.31.31 0 01-.096.24.322.322 0 01-.224.08.364.364 0 01-.24-.08.324.324 0 01-.088-.24v-5.08c0-.101.029-.179.088-.232a.34.34 0 01.24-.088c.091 0 .165.029.224.088.064.053.096.131.096.232v3.248l1.912-1.752a.298.298 0 01.216-.096c.08 0 .149.029.208.088a.284.284 0 01.088.208.317.317 0 01-.112.24l-1.576 1.408 1.728 1.504zm-13.509 11.104c.037.059.056.12.056.184a.25.25 0 01-.096.2.318.318 0 01-.208.072.325.325 0 01-.288-.16l-1.072-1.696c-.139-.219-.283-.368-.432-.448-.15-.085-.352-.128-.608-.128h-1.008v2.088c0 .101-.03.184-.088.248a.312.312 0 01-.232.088.323.323 0 01-.24-.088.353.353 0 01-.088-.248v-5.024c0-.096.03-.173.088-.232a.351.351 0 01.248-.088h1.984c.613 0 1.08.136 1.4.408.325.272.488.672.488 1.2 0 .448-.13.808-.392 1.08-.256.272-.624.437-1.104.496a.984.984 0 01.36.208c.107.096.213.229.32.4l.912 1.44zm-2.04-2.52c.437 0 .763-.091.976-.272.219-.181.328-.456.328-.824 0-.363-.107-.632-.32-.808-.213-.176-.541-.264-.984-.264h-1.616v2.168h1.616zm4.407 2.984a1.9 1.9 0 01-.976-.248 1.69 1.69 0 01-.648-.704 2.438 2.438 0 01-.224-1.072c0-.405.075-.76.224-1.064.155-.309.37-.547.648-.712a1.9 1.9 0 01.976-.248 1.9 1.9 0 01.976.248c.283.165.499.403.648.712.155.304.232.659.232 1.064s-.077.763-.232 1.072c-.15.304-.365.539-.648.704a1.9 1.9 0 01-.976.248zm0-.536c.384 0 .677-.125.88-.376.208-.256.312-.627.312-1.112 0-.475-.104-.84-.312-1.096-.208-.261-.501-.392-.88-.392s-.672.131-.88.392c-.208.256-.312.621-.312 1.096 0 .48.101.848.304 1.104.208.256.504.384.888.384zm4.104.536c-.368 0-.693-.083-.976-.248a1.694 1.694 0 01-.648-.704 2.442 2.442 0 01-.224-1.072c0-.405.075-.76.224-1.064.155-.309.371-.547.648-.712.283-.165.608-.248.976-.248s.694.083.976.248c.283.165.499.403.648.712.155.304.232.659.232 1.064s-.077.763-.232 1.072a1.62 1.62 0 01-.648.704 1.899 1.899 0 01-.976.248zm0-.536c.384 0 .678-.125.88-.376.208-.256.312-.627.312-1.112 0-.475-.104-.84-.312-1.096-.208-.261-.501-.392-.88-.392-.378 0-.672.131-.88.392-.208.256-.312.621-.312 1.096 0 .48.102.848.304 1.104.208.256.504.384.888.384zm6.824-3.512c.864 0 1.296.515 1.296 1.544v2.168a.324.324 0 01-.088.24.332.332 0 01-.232.08.364.364 0 01-.24-.08.328.328 0 01-.088-.24v-2.152c0-.357-.064-.616-.192-.776-.128-.16-.328-.24-.6-.24-.325 0-.581.109-.768.328-.186.219-.28.515-.28.888v1.952a.31.31 0 01-.096.24.332.332 0 01-.232.08.334.334 0 01-.232-.08.328.328 0 01-.088-.24v-2.152c0-.357-.064-.616-.192-.776-.128-.16-.33-.24-.608-.24-.32 0-.576.109-.768.328-.186.219-.28.515-.28.888v1.952a.324.324 0 01-.088.24.332.332 0 01-.232.08.364.364 0 01-.24-.08.328.328 0 01-.088-.24v-3.376c0-.096.03-.173.088-.232a.34.34 0 01.24-.088.3.3 0 01.224.088.286.286 0 01.088.224v.384c.118-.229.28-.405.488-.528.208-.123.448-.184.72-.184.608 0 1.006.256 1.192.768.112-.235.283-.421.512-.56.23-.139.491-.208.784-.208zM184.673 168.04a.352.352 0 01-.248-.088.356.356 0 01-.088-.248v-4.784h-1.72a.324.324 0 01-.224-.072c-.053-.048-.08-.117-.08-.208 0-.091.027-.16.08-.208a.324.324 0 01.224-.072h4.104c.096 0 .171.024.224.072.054.048.08.117.08.208 0 .091-.026.16-.08.208a.323.323 0 01-.224.072h-1.72v4.784a.352.352 0 01-.088.248.32.32 0 01-.24.088zm7.398-3.808c.054-.128.142-.192.264-.192a.33.33 0 01.216.08.25.25 0 01.096.2.346.346 0 01-.024.12l-1.328 3.36a.365.365 0 01-.344.224.396.396 0 01-.2-.056.433.433 0 01-.136-.168l-1.104-2.808-1.096 2.808a.348.348 0 01-.136.168.396.396 0 01-.408 0 .404.404 0 01-.144-.168l-1.328-3.352a.275.275 0 01.08-.328.38.38 0 01.24-.088c.128 0 .219.064.272.192l1.096 2.952 1.128-2.928a.39.39 0 01.128-.16.341.341 0 01.184-.056c.07 0 .131.019.184.056a.314.314 0 01.128.16l1.128 2.92 1.104-2.936zm1.503 3.808a.364.364 0 01-.24-.08.324.324 0 01-.088-.24v-3.376c0-.101.029-.179.088-.232a.34.34 0 01.24-.088c.096 0 .173.029.232.088.058.053.088.131.088.232v3.376c0 .107-.03.187-.088.24a.334.334 0 01-.232.08zm0-4.856a.437.437 0 01-.312-.112.386.386 0 01-.12-.296c0-.117.04-.213.12-.288a.437.437 0 01.312-.112c.128 0 .232.037.312.112.08.075.12.171.12.288 0 .123-.04.221-.12.296a.437.437 0 01-.312.112zm3.158.824c.933 0 1.4.515 1.4 1.544v2.168a.324.324 0 01-.088.24c-.053.053-.131.08-.232.08a.346.346 0 01-.24-.08.324.324 0 01-.088-.24v-2.128c0-.363-.072-.627-.216-.792-.139-.165-.363-.248-.672-.248-.357 0-.643.109-.856.328-.213.219-.32.515-.32.888v1.952a.324.324 0 01-.088.24c-.053.053-.131.08-.232.08a.346.346 0 01-.24-.08.324.324 0 01-.088-.24v-3.376c0-.096.029-.173.088-.232a.324.324 0 01.24-.088c.096 0 .171.029.224.088a.302.302 0 01.088.224v.408a1.29 1.29 0 01.536-.544c.229-.128.491-.192.784-.192zm-17.684 12.096c.326.085.576.245.752.48.182.235.272.528.272.88 0 .496-.162.877-.488 1.144-.325.261-.786.392-1.384.392h-2.016a.352.352 0 01-.248-.088.317.317 0 01-.088-.232v-5c0-.096.03-.173.088-.232a.352.352 0 01.248-.088h1.928c.582 0 1.032.128 1.352.384.32.256.48.619.48 1.088 0 .304-.08.565-.24.784a1.365 1.365 0 01-.656.488zm-2.552-.24h1.52c.422 0 .739-.085.952-.256.219-.171.328-.419.328-.744 0-.64-.426-.96-1.28-.96h-1.52v1.96zm1.64 2.592c.443 0 .768-.08.976-.24.214-.165.32-.421.32-.768 0-.693-.432-1.04-1.296-1.04h-1.64v2.048h1.64zm5.69-.36c.058 0 .109.024.152.072a.27.27 0 01.064.184c0 .133-.094.256-.28.368a2.556 2.556 0 01-.608.256c-.214.053-.422.08-.624.08-.603 0-1.08-.179-1.432-.536-.347-.357-.52-.851-.52-1.48 0-.4.077-.752.232-1.056a1.73 1.73 0 01.648-.72c.282-.171.602-.256.96-.256.506 0 .909.165 1.208.496.298.331.448.779.448 1.344 0 .107-.022.184-.064.232-.043.048-.112.072-.208.072h-2.576c.048.917.482 1.376 1.304 1.376.208 0 .386-.027.536-.08.149-.059.309-.136.48-.232.138-.08.232-.12.28-.12zm-1.4-2.584c-.342 0-.616.107-.824.32-.203.213-.323.515-.36.904h2.264c-.011-.395-.11-.696-.296-.904-.187-.213-.448-.32-.784-.32zm5.397-2.192c.101 0 .181.029.24.088a.302.302 0 01.088.224v5.088a.313.313 0 01-.088.232.324.324 0 01-.24.088.324.324 0 01-.24-.088.334.334 0 01-.08-.232v-.432a1.279 1.279 0 01-.52.568c-.224.133-.488.2-.792.2-.341 0-.643-.085-.904-.256a1.699 1.699 0 01-.608-.712 2.514 2.514 0 01-.216-1.072c0-.4.072-.752.216-1.056a1.64 1.64 0 01.608-.704c.261-.165.563-.248.904-.248.304 0 .568.067.792.2.229.133.403.323.52.568v-2.144c0-.096.027-.171.08-.224a.324.324 0 01.24-.088zm-1.504 5.2c.379 0 .669-.128.872-.384.208-.261.312-.629.312-1.104 0-.475-.104-.84-.312-1.096-.203-.256-.493-.384-.872-.384s-.675.128-.888.384c-.208.256-.312.616-.312 1.08 0 .475.104.845.312 1.112.213.261.509.392.888.392zm4.627-3.496c.224-.016.336.075.336.272a.3.3 0 01-.072.208c-.048.048-.131.077-.248.088l-.24.024c-.357.032-.624.16-.8.384a1.222 1.222 0 00-.256.776v1.944c0 .107-.029.187-.088.24a.334.334 0 01-.232.08.364.364 0 01-.24-.08.324.324 0 01-.088-.24v-3.376c0-.101.032-.179.096-.232a.33.33 0 01.232-.088c.085 0 .157.029.216.088a.286.286 0 01.088.224v.448a1.22 1.22 0 01.472-.536c.208-.123.445-.195.712-.216l.112-.008zm2.097 4.032c-.368 0-.694-.083-.976-.248a1.68 1.68 0 01-.648-.704 2.428 2.428 0 01-.224-1.072c0-.405.074-.76.224-1.064.154-.309.37-.547.648-.712.282-.165.608-.248.976-.248s.693.083.976.248c.282.165.498.403.648.712.154.304.232.659.232 1.064s-.078.763-.232 1.072c-.15.304-.366.539-.648.704a1.901 1.901 0 01-.976.248zm0-.536c.384 0 .677-.125.88-.376.208-.256.312-.627.312-1.112 0-.475-.104-.84-.312-1.096-.208-.261-.502-.392-.88-.392-.379 0-.672.131-.88.392-.208.256-.312.621-.312 1.096 0 .48.101.848.304 1.104.208.256.504.384.888.384zm4.104.536c-.368 0-.693-.083-.976-.248a1.694 1.694 0 01-.648-.704 2.442 2.442 0 01-.224-1.072c0-.405.075-.76.224-1.064.155-.309.371-.547.648-.712.283-.165.608-.248.976-.248s.693.083.976.248c.283.165.499.403.648.712.155.304.232.659.232 1.064s-.077.763-.232 1.072a1.62 1.62 0 01-.648.704 1.901 1.901 0 01-.976.248zm0-.536c.384 0 .677-.125.88-.376.208-.256.312-.627.312-1.112 0-.475-.104-.84-.312-1.096-.208-.261-.501-.392-.88-.392s-.672.131-.88.392c-.208.256-.312.621-.312 1.096 0 .48.101.848.304 1.104.208.256.504.384.888.384zm6.824-3.512c.864 0 1.296.515 1.296 1.544v2.168a.324.324 0 01-.088.24.334.334 0 01-.232.08.364.364 0 01-.24-.08.324.324 0 01-.088-.24v-2.152c0-.357-.064-.616-.192-.776-.128-.16-.328-.24-.6-.24-.325 0-.581.109-.768.328-.187.219-.28.515-.28.888v1.952a.31.31 0 01-.096.24.334.334 0 01-.232.08.334.334 0 01-.232-.08.324.324 0 01-.088-.24v-2.152c0-.357-.064-.616-.192-.776-.128-.16-.331-.24-.608-.24-.32 0-.576.109-.768.328-.187.219-.28.515-.28.888v1.952a.324.324 0 01-.088.24.334.334 0 01-.232.08.364.364 0 01-.24-.08.324.324 0 01-.088-.24v-3.376c0-.096.029-.173.088-.232a.34.34 0 01.24-.088c.091 0 .165.029.224.088a.286.286 0 01.088.224v.384c.117-.229.28-.405.488-.528.208-.123.448-.184.72-.184.608 0 1.005.256 1.192.768.112-.235.283-.421.512-.56.229-.139.491-.208.784-.208zM127.899 171.104c.325.085.576.245.752.48.181.235.272.528.272.88 0 .496-.163.877-.488 1.144-.326.261-.787.392-1.384.392h-2.016a.35.35 0 01-.248-.088.313.313 0 01-.088-.232v-5c0-.096.029-.173.088-.232a.35.35 0 01.248-.088h1.928c.581 0 1.032.128 1.352.384.32.256.48.619.48 1.088 0 .304-.08.565-.24.784a1.375 1.375 0 01-.656.488zm-2.552-.24h1.52c.421 0 .738-.085.952-.256.218-.171.328-.419.328-.744 0-.64-.427-.96-1.28-.96h-1.52v1.96zm1.64 2.592c.442 0 .768-.08.976-.24.213-.165.32-.421.32-.768 0-.693-.432-1.04-1.296-1.04h-1.64v2.048h1.64zm4.265-3.448c.976 0 1.464.512 1.464 1.536v2.176a.313.313 0 01-.088.232.286.286 0 01-.224.088.313.313 0 01-.232-.088.313.313 0 01-.088-.232v-.384a1.167 1.167 0 01-.464.536 1.387 1.387 0 01-.72.184c-.251 0-.483-.051-.696-.152a1.245 1.245 0 01-.496-.424 1.044 1.044 0 01-.184-.6c0-.293.075-.52.224-.68.149-.165.395-.283.736-.352.341-.075.816-.112 1.424-.112h.176v-.264c0-.32-.067-.555-.2-.704-.128-.149-.339-.224-.632-.224-.363 0-.731.099-1.104.296-.144.091-.245.136-.304.136a.206.206 0 01-.16-.072.264.264 0 01-.064-.184c0-.075.021-.139.064-.192a.822.822 0 01.224-.176c.187-.107.397-.189.632-.248.24-.064.477-.096.712-.096zm-.264 3.536c.32 0 .581-.107.784-.32.208-.219.312-.499.312-.84v-.232h-.144c-.469 0-.827.021-1.072.064-.245.037-.421.104-.528.2-.101.091-.152.227-.152.408 0 .208.075.381.224.52.155.133.347.2.576.2zm4.381-.016c.186.016.28.101.28.256 0 .091-.035.16-.104.208-.064.043-.163.059-.296.048l-.216-.016c-.427-.032-.742-.16-.944-.384-.203-.224-.304-.563-.304-1.016v-2.008h-.536a.333.333 0 01-.216-.064.249.249 0 01-.072-.184.26.26 0 01.072-.192.31.31 0 01.216-.072h.536v-.904c0-.101.029-.179.088-.232a.32.32 0 01.24-.088c.096 0 .173.029.232.088.058.053.088.131.088.232v.904h.888a.27.27 0 01.2.072c.053.048.08.112.08.192a.237.237 0 01-.08.184.29.29 0 01-.2.064h-.888v2.04c0 .293.058.507.176.64.122.128.304.2.544.216l.216.016zm2.553-3.52c.459 0 .805.131 1.04.392.235.256.352.64.352 1.152v2.168a.324.324 0 01-.088.24.334.334 0 01-.232.08.346.346 0 01-.24-.08.324.324 0 01-.088-.24v-2.152c0-.347-.072-.603-.216-.768-.139-.165-.363-.248-.672-.248-.357 0-.643.109-.856.328-.213.219-.32.515-.32.888v1.952a.324.324 0 01-.088.24c-.053.053-.131.08-.232.08a.346.346 0 01-.24-.08.324.324 0 01-.088-.24v-5.088c0-.091.029-.165.088-.224a.34.34 0 01.24-.088c.101 0 .179.029.232.088a.286.286 0 01.088.224v2.096a1.3 1.3 0 01.536-.536c.229-.123.491-.184.784-.184zm4.174.016c.224-.016.336.075.336.272a.3.3 0 01-.072.208c-.048.048-.131.077-.248.088l-.24.024c-.358.032-.624.16-.8.384a1.222 1.222 0 00-.256.776v1.944c0 .107-.03.187-.088.24a.334.334 0 01-.232.08.364.364 0 01-.24-.08.324.324 0 01-.088-.24v-3.376c0-.101.032-.179.096-.232a.33.33 0 01.232-.088c.085 0 .157.029.216.088a.29.29 0 01.088.224v.448a1.22 1.22 0 01.472-.536c.208-.123.445-.195.712-.216l.112-.008zm2.097 4.032c-.368 0-.694-.083-.976-.248a1.68 1.68 0 01-.648-.704 2.428 2.428 0 01-.224-1.072c0-.405.074-.76.224-1.064.154-.309.37-.547.648-.712.282-.165.608-.248.976-.248s.693.083.976.248c.282.165.498.403.648.712.154.304.232.659.232 1.064s-.078.763-.232 1.072c-.15.304-.366.539-.648.704a1.901 1.901 0 01-.976.248zm0-.536c.384 0 .677-.125.88-.376.208-.256.312-.627.312-1.112 0-.475-.104-.84-.312-1.096-.208-.261-.502-.392-.88-.392-.379 0-.672.131-.88.392-.208.256-.312.621-.312 1.096 0 .48.101.848.304 1.104.208.256.504.384.888.384zm4.104.536c-.368 0-.694-.083-.976-.248a1.68 1.68 0 01-.648-.704 2.428 2.428 0 01-.224-1.072c0-.405.074-.76.224-1.064.154-.309.37-.547.648-.712.282-.165.608-.248.976-.248s.693.083.976.248c.282.165.498.403.648.712.154.304.232.659.232 1.064s-.078.763-.232 1.072c-.15.304-.366.539-.648.704a1.901 1.901 0 01-.976.248zm0-.536c.384 0 .677-.125.88-.376.208-.256.312-.627.312-1.112 0-.475-.104-.84-.312-1.096-.208-.261-.502-.392-.88-.392-.379 0-.672.131-.88.392-.208.256-.312.621-.312 1.096 0 .48.101.848.304 1.104.208.256.504.384.888.384zm6.824-3.512c.864 0 1.296.515 1.296 1.544v2.168a.324.324 0 01-.088.24.334.334 0 01-.232.08.364.364 0 01-.24-.08.324.324 0 01-.088-.24v-2.152c0-.357-.064-.616-.192-.776-.128-.16-.328-.24-.6-.24-.325 0-.581.109-.768.328-.187.219-.28.515-.28.888v1.952a.31.31 0 01-.096.24.334.334 0 01-.232.08.334.334 0 01-.232-.08.324.324 0 01-.088-.24v-2.152c0-.357-.064-.616-.192-.776-.128-.16-.331-.24-.608-.24-.32 0-.576.109-.768.328-.187.219-.28.515-.28.888v1.952a.324.324 0 01-.088.24.334.334 0 01-.232.08.364.364 0 01-.24-.08.324.324 0 01-.088-.24v-3.376c0-.096.029-.173.088-.232a.34.34 0 01.24-.088c.091 0 .165.029.224.088a.286.286 0 01.088.224v.384c.117-.229.28-.405.488-.528.208-.123.448-.184.72-.184.608 0 1.005.256 1.192.768.112-.235.283-.421.512-.56.229-.139.491-.208.784-.208zM32.189 260.104c.325.085.576.245.752.48.181.235.272.528.272.88 0 .496-.163.877-.488 1.144-.325.261-.787.392-1.384.392h-2.016a.351.351 0 01-.248-.088.314.314 0 01-.088-.232v-5c0-.096.03-.173.088-.232a.351.351 0 01.248-.088h1.928c.581 0 1.032.128 1.352.384.32.256.48.619.48 1.088 0 .304-.08.565-.24.784a1.37 1.37 0 01-.656.488zm-2.552-.24h1.52c.421 0 .739-.085.952-.256.219-.171.328-.419.328-.744 0-.64-.427-.96-1.28-.96h-1.52v1.96zm1.64 2.592c.443 0 .768-.08.976-.24.213-.165.32-.421.32-.768 0-.693-.432-1.04-1.296-1.04h-1.64v2.048h1.64zm4.265-3.448c.976 0 1.464.512 1.464 1.536v2.176c0 .096-.03.173-.088.232a.286.286 0 01-.224.088.312.312 0 01-.232-.088.314.314 0 01-.088-.232v-.384a1.17 1.17 0 01-.464.536 1.387 1.387 0 01-.72.184c-.25 0-.482-.051-.696-.152a1.242 1.242 0 01-.496-.424 1.046 1.046 0 01-.184-.6c0-.293.075-.52.224-.68.15-.165.395-.283.736-.352.342-.075.816-.112 1.424-.112h.176v-.264c0-.32-.066-.555-.2-.704-.128-.149-.338-.224-.632-.224-.362 0-.73.099-1.104.296-.144.091-.245.136-.304.136a.205.205 0 01-.16-.072.266.266 0 01-.064-.184c0-.075.022-.139.064-.192a.816.816 0 01.224-.176c.187-.107.398-.189.632-.248.24-.064.478-.096.712-.096zm-.264 3.536c.32 0 .582-.107.784-.32.208-.219.312-.499.312-.84v-.232h-.144c-.47 0-.826.021-1.072.064-.245.037-.421.104-.528.2-.101.091-.152.227-.152.408a.68.68 0 00.224.52c.155.133.347.2.576.2zm2.91.496a.364.364 0 01-.24-.08.325.325 0 01-.089-.24v-5.08c0-.101.03-.179.088-.232a.34.34 0 01.24-.088c.09 0 .165.029.224.088.064.053.096.131.096.232v5.08a.31.31 0 01-.096.24.322.322 0 01-.224.08zm2.805.016c-.363 0-.685-.083-.968-.248a1.688 1.688 0 01-.648-.704 2.366 2.366 0 01-.224-1.056c0-.4.078-.755.232-1.064.16-.309.382-.549.664-.72.283-.171.608-.256.976-.256.203 0 .403.029.6.088.203.053.379.133.528.24a.63.63 0 01.2.192.332.332 0 01.064.2.266.266 0 01-.064.184.182.182 0 01-.152.072.274.274 0 01-.12-.032 1.043 1.043 0 01-.168-.104 2.43 2.43 0 00-.4-.216 1.151 1.151 0 00-.456-.08c-.39 0-.693.133-.912.4-.213.261-.32.627-.32 1.096 0 .469.107.832.32 1.088.219.256.523.384.912.384.181 0 .336-.027.464-.08.133-.053.267-.125.4-.216.059-.037.115-.069.168-.096a.312.312 0 01.136-.04c.059 0 .107.024.144.072a.266.266 0 01.064.184.353.353 0 01-.056.192.832.832 0 01-.208.184c-.15.101-.33.184-.544.248a2.305 2.305 0 01-.632.088zm3.503 0a1.9 1.9 0 01-.976-.248 1.69 1.69 0 01-.648-.704 2.438 2.438 0 01-.224-1.072c0-.405.075-.76.224-1.064.155-.309.37-.547.648-.712a1.9 1.9 0 01.976-.248 1.9 1.9 0 01.976.248c.283.165.499.403.648.712.155.304.232.659.232 1.064s-.077.763-.232 1.072c-.15.304-.365.539-.648.704a1.9 1.9 0 01-.976.248zm0-.536c.384 0 .677-.125.88-.376.208-.256.312-.627.312-1.112 0-.475-.104-.84-.312-1.096-.208-.261-.501-.392-.88-.392s-.672.131-.88.392c-.208.256-.312.621-.312 1.096 0 .48.101.848.304 1.104.208.256.504.384.888.384zm4.448-3.512c.933 0 1.4.515 1.4 1.544v2.168c0 .101-.03.181-.088.24-.053.053-.13.08-.232.08a.345.345 0 01-.24-.08.325.325 0 01-.088-.24v-2.128c0-.363-.072-.627-.216-.792-.139-.165-.363-.248-.672-.248-.357 0-.643.109-.856.328-.213.219-.32.515-.32.888v1.952c0 .101-.03.181-.088.24-.053.053-.13.08-.232.08a.345.345 0 01-.24-.08.325.325 0 01-.088-.24v-3.376c0-.096.03-.173.088-.232a.323.323 0 01.24-.088c.096 0 .17.029.224.088a.303.303 0 01.088.224v.408c.128-.24.307-.421.536-.544.23-.128.49-.192.784-.192zm5.062.216c.058-.128.152-.192.28-.192a.33.33 0 01.216.08.25.25 0 01.096.2c0 .048-.011.091-.032.128l-2.248 4.848a.297.297 0 01-.12.136.27.27 0 01-.152.048.33.33 0 01-.216-.08.235.235 0 01-.088-.192c0-.043.01-.085.032-.128l.56-1.208-1.584-3.424a.236.236 0 01-.032-.12c0-.08.034-.149.104-.208a.38.38 0 01.24-.088.27.27 0 01.152.048.297.297 0 01.12.136l1.336 3 1.336-2.984z" fill="#000"/></svg>
