<svg fill="none" xmlns="http://www.w3.org/2000/svg" viewBox="0 0 242 302">
<title>Ground floor floorplan, featuring large living room and kitchen/dining room, and two bedrooms</title>
<path stroke="#000" d="M221 101h20v40h-20z"/><path d="M221 221V121h-60v100h60z" fill="#FFE2E2" stroke="#000"/><path d="M81 121h80v100l-20 20h-40l-20-20V121z" fill="#EAE9FF" stroke="#000"/><path fill="#E6FBFD" stroke="#000" d="M1 151h80v70H1zM1 101h80v50H1z"/><path fill="#E4FFF1" stroke="#000" d="M41 61h80v40H41z"/><path d="M121 121h40V61h-20V41h-20v80z" stroke="#000"/><path fill="#E4FFF1" stroke="#000" d="M81 41h40v20H81z"/><path stroke="#000" stroke-dasharray="2 2" d="M1 221h80v80H1z"/><path fill="#FFF2FF" stroke="#000" d="M141 1h100v60H141z"/><path d="M161 121V61h80v40h-20v20h-60z" fill="#FCFFDA" stroke="#000"/><path stroke="#000" d="M141 81h20v4h-20zM141 85h20v4h-20zM141 89h20v4h-20zM141 97h20v4h-20zM141 93h20v4h-20zM141 81V61h13l-13 20zm0 0l20-13v13"/><path d="M150.646 109.354a.502.502 0 00.708 0l3.182-3.182a.502.502 0 00-.708-.708L151 108.293l-2.828-2.829a.502.502 0 00-.708.708l3.182 3.182zM150.5 87v22h1V87h-1zM29.612 178.72c.827 0 1.475.229 1.944.688.475.453.712 1.104.712 1.952 0 .848-.237 1.501-.712 1.96-.47.453-1.117.68-1.944.68h-1.704v-5.28h1.704zm.064 4.68c.603 0 1.072-.179 1.408-.536.342-.363.512-.864.512-1.504s-.17-1.139-.512-1.496c-.336-.363-.805-.544-1.408-.544h-1.128v4.08h1.128zm5.2-3.48c.38 0 .713.083 1 .248.294.165.523.405.689.72.165.309.248.68.248 1.112 0 .432-.083.805-.248 1.12a1.737 1.737 0 01-.688.712 1.976 1.976 0 01-1 .248c-.374 0-.707-.083-1-.248a1.736 1.736 0 01-.688-.712c-.166-.315-.248-.688-.248-1.12 0-.432.082-.803.248-1.112.165-.315.394-.555.688-.72a2.004 2.004 0 011-.248zm0 .552c-.405 0-.722.136-.951.408-.23.272-.344.645-.344 1.12 0 .475.114.848.344 1.12.229.272.546.408.952.408.405 0 .722-.136.952-.408.229-.272.344-.645.344-1.12 0-.475-.115-.848-.344-1.12-.23-.272-.547-.408-.952-.408zm4.256 3.608c-.256 0-.499-.048-.728-.144a1.255 1.255 0 01-.552-.464c-.139-.219-.208-.501-.208-.848V180h.64v2.456c0 .405.088.685.264.84.176.149.424.224.744.224.203 0 .395-.045.576-.136.181-.096.33-.243.448-.44.117-.197.176-.453.176-.768V180h.64v4h-.56l-.04-.608c-.139.24-.328.416-.568.528-.235.107-.512.16-.832.16zm5.116 0c-.304 0-.576-.072-.816-.216a1.423 1.423 0 01-.544-.568l-.04.704h-.56v-5.84h.64v2.464c.128-.208.307-.376.536-.504.235-.133.499-.2.792-.2.33 0 .635.083.912.248.278.165.499.403.664.712.166.309.248.683.248 1.12 0 .432-.085.805-.256 1.12a1.788 1.788 0 01-.664.712 1.752 1.752 0 01-.912.248zm-.064-.56c.395 0 .702-.139.92-.416.224-.277.336-.645.336-1.104 0-.459-.11-.827-.328-1.104-.218-.277-.525-.416-.92-.416-.373 0-.677.141-.912.424-.234.283-.352.653-.352 1.112 0 .459.115.824.344 1.096.235.272.539.408.912.408zm3.395-5.36v4.824c0 .203.037.344.112.424.074.075.194.112.36.112.106 0 .194-.008.264-.024.069-.016.162-.045.28-.088l-.104.56a1.496 1.496 0 01-.592.112c-.64 0-.96-.357-.96-1.072v-4.848h.64zm3.175 5.92c-.378 0-.717-.083-1.015-.248a1.737 1.737 0 01-.688-.712c-.166-.315-.248-.688-.248-1.12 0-.432.082-.803.248-1.112.165-.315.392-.555.68-.72.288-.165.615-.248.983-.248.374 0 .691.08.953.24.266.16.469.379.608.656.138.272.208.579.208.92 0 .091-.003.173-.008.248a1.856 1.856 0 01-.025.2h-3.016c.033.421.163.749.393.984.229.235.533.352.912.352.293 0 .53-.056.712-.168.186-.112.335-.264.447-.456l.505.296c-.15.272-.366.488-.648.648-.278.16-.611.24-1 .24zm-.055-3.6c-.337 0-.614.101-.832.304-.214.197-.35.475-.408.832h2.383c-.015-.363-.127-.643-.335-.84-.209-.197-.478-.296-.808-.296zM24.255 193v-5.28h1.88c.624 0 1.08.131 1.368.392.288.261.432.616.432 1.064 0 .267-.078.509-.232.728a1.04 1.04 0 01-.656.408v.008c.314.059.562.203.744.432.186.224.28.48.28.768 0 .448-.168.808-.504 1.08-.336.267-.816.4-1.44.4h-1.872zm.64-2.96h1.248c.746 0 1.12-.288 1.12-.864 0-.571-.374-.856-1.12-.856h-1.248v1.72zm0 2.36h1.384c.378 0 .658-.077.84-.232.186-.155.28-.371.28-.648 0-.283-.094-.499-.28-.648-.182-.155-.462-.232-.84-.232h-1.384v1.76zm5.805.68c-.379 0-.717-.083-1.016-.248a1.736 1.736 0 01-.688-.712c-.165-.315-.248-.688-.248-1.12 0-.432.082-.803.248-1.112.165-.315.392-.555.68-.72.288-.165.616-.248.984-.248.373 0 .69.08.952.24.267.16.47.379.608.656.139.272.208.579.208.92 0 .091-.003.173-.008.248a1.908 1.908 0 01-.024.2H29.38c.032.421.163.749.392.984.23.235.533.352.912.352.293 0 .53-.056.712-.168.186-.112.336-.264.448-.456l.504.296c-.15.272-.365.488-.648.648-.277.16-.61.24-1 .24zm-.056-3.6c-.336 0-.613.101-.832.304-.213.197-.35.475-.408.832h2.384c-.016-.363-.128-.643-.336-.84-.208-.197-.478-.296-.808-.296zm4.228 3.6a1.751 1.751 0 01-1.576-.96c-.166-.315-.248-.688-.248-1.12 0-.443.088-.819.264-1.128.176-.309.408-.544.696-.704.288-.165.597-.248.928-.248.288 0 .544.067.768.2.224.128.389.304.496.528v-2.488h.64V193h-.56l-.04-.752c-.112.272-.294.48-.544.624a1.67 1.67 0 01-.824.208zm.064-.56c.378 0 .682-.141.912-.424.234-.283.352-.667.352-1.152 0-.459-.115-.816-.344-1.072a1.128 1.128 0 00-.888-.392c-.406 0-.72.139-.944.416-.224.277-.336.645-.336 1.104 0 .459.109.827.328 1.104.218.277.525.416.92.416zm3.058.48v-4h.52l.088.656c.224-.491.65-.736 1.28-.736.07 0 .144.005.224.016a.614.614 0 01.216.064l-.112.584a1.065 1.065 0 00-.192-.048 2.028 2.028 0 00-.296-.016c-.165 0-.333.048-.504.144a1.148 1.148 0 00-.416.44c-.112.192-.168.437-.168.736V193h-.64zm4.463-4.08c.379 0 .712.083 1 .248.294.165.523.405.688.72.166.309.248.68.248 1.112 0 .432-.082.805-.248 1.12a1.737 1.737 0 01-.688.712 1.976 1.976 0 01-1 .248c-.373 0-.706-.083-1-.248a1.737 1.737 0 01-.688-.712c-.165-.315-.248-.688-.248-1.12 0-.432.083-.803.248-1.112.166-.315.395-.555.688-.72a2.004 2.004 0 011-.248zm0 .552c-.405 0-.722.136-.952.408-.229.272-.344.645-.344 1.12 0 .475.115.848.344 1.12.23.272.547.408.952.408.406 0 .723-.136.952-.408.23-.272.344-.645.344-1.12 0-.475-.114-.848-.344-1.12-.229-.272-.546-.408-.952-.408zm4.464-.552c.379 0 .712.083 1 .248.293.165.523.405.688.72.165.309.248.68.248 1.112 0 .432-.083.805-.248 1.12a1.736 1.736 0 01-.688.712 1.976 1.976 0 01-1 .248c-.373 0-.707-.083-1-.248a1.737 1.737 0 01-.688-.712c-.165-.315-.248-.688-.248-1.12 0-.432.083-.803.248-1.112.165-.315.395-.555.688-.72a2.005 2.005 0 011-.248zm0 .552c-.405 0-.723.136-.952.408-.23.272-.344.645-.344 1.12 0 .475.114.848.344 1.12.23.272.547.408.952.408.405 0 .723-.136.952-.408.23-.272.344-.645.344-1.12 0-.475-.115-.848-.344-1.12-.23-.272-.547-.408-.952-.408zM49.728 193v-4h.56l.04.624a1.32 1.32 0 01.56-.536c.235-.112.475-.168.72-.168.283 0 .55.064.8.192.251.128.443.325.576.592.086-.181.206-.328.36-.44.155-.117.323-.203.504-.256a1.7 1.7 0 011.256.072c.235.107.427.272.576.496.15.224.224.512.224.864V193h-.64v-2.496c0-.363-.09-.624-.272-.784a.98.98 0 00-.672-.24 1.147 1.147 0 00-1.024.6c-.106.197-.16.44-.16.728V193h-.64v-2.496c0-.363-.09-.624-.272-.784a.98.98 0 00-.672-.24c-.176 0-.357.048-.544.144a1.123 1.123 0 00-.456.44c-.122.203-.184.469-.184.8V193h-.64zM36.037 118.72v.6h-1.84V124h-.64v-4.68h-1.84v-.6h4.32zM41.2 120h.712l-1.392 4h-.64l-1.128-3.184L37.688 124h-.64l-1.392-4h.712l1.008 3.256L38.464 120h.64l1.088 3.256L41.2 120zm1.658-.768a.494.494 0 01-.352-.128.493.493 0 01-.128-.352c0-.144.043-.259.128-.344a.475.475 0 01.352-.136c.144 0 .259.045.344.136.09.085.136.2.136.344a.477.477 0 01-.136.352.466.466 0 01-.344.128zm.32.768v4h-.64v-4h.64zm1.152 4v-4h.56l.04.624c.139-.251.328-.429.568-.536.24-.112.499-.168.776-.168.288 0 .55.056.784.168.235.107.421.272.56.496.144.224.216.509.216.856V124h-.64v-2.336c0-.443-.096-.749-.288-.92a.975.975 0 00-.696-.264c-.192 0-.384.045-.576.136a1.146 1.146 0 00-.48.44c-.123.203-.184.475-.184.816V124h-.64zm-20.075 9v-5.28h1.88c.624 0 1.08.131 1.368.392.288.261.432.616.432 1.064 0 .267-.078.509-.232.728a1.04 1.04 0 01-.656.408v.008c.314.059.562.203.744.432.186.224.28.48.28.768 0 .448-.168.808-.504 1.08-.336.267-.816.4-1.44.4h-1.872zm.64-2.96h1.248c.746 0 1.12-.288 1.12-.864 0-.571-.374-.856-1.12-.856h-1.248v1.72zm0 2.36h1.384c.378 0 .658-.077.84-.232.186-.155.28-.371.28-.648 0-.283-.094-.499-.28-.648-.182-.155-.462-.232-.84-.232h-1.384v1.76zm5.805.68c-.379 0-.717-.083-1.016-.248a1.736 1.736 0 01-.688-.712c-.165-.315-.248-.688-.248-1.12 0-.432.082-.803.248-1.112.165-.315.392-.555.68-.72.288-.165.616-.248.984-.248.373 0 .69.08.952.24.267.16.47.379.608.656.139.272.208.579.208.92 0 .091-.003.173-.008.248a1.908 1.908 0 01-.024.2H29.38c.032.421.163.749.392.984.23.235.533.352.912.352.293 0 .53-.056.712-.168.186-.112.336-.264.448-.456l.504.296c-.15.272-.365.488-.648.648-.277.16-.61.24-1 .24zm-.056-3.6c-.336 0-.613.101-.832.304-.213.197-.35.475-.408.832h2.384c-.016-.363-.128-.643-.336-.84-.208-.197-.478-.296-.808-.296zm4.228 3.6a1.751 1.751 0 01-1.576-.96c-.166-.315-.248-.688-.248-1.12 0-.443.088-.819.264-1.128.176-.309.408-.544.696-.704.288-.165.597-.248.928-.248.288 0 .544.067.768.2.224.128.389.304.496.528v-2.488h.64V133h-.56l-.04-.752c-.112.272-.294.48-.544.624a1.67 1.67 0 01-.824.208zm.064-.56c.378 0 .682-.141.912-.424.234-.283.352-.667.352-1.152 0-.459-.115-.816-.344-1.072a1.128 1.128 0 00-.888-.392c-.406 0-.72.139-.944.416-.224.277-.336.645-.336 1.104 0 .459.109.827.328 1.104.218.277.525.416.92.416zm3.058.48v-4h.52l.088.656c.224-.491.65-.736 1.28-.736.07 0 .144.005.224.016a.614.614 0 01.216.064l-.112.584a1.065 1.065 0 00-.192-.048 2.028 2.028 0 00-.296-.016c-.165 0-.333.048-.504.144a1.148 1.148 0 00-.416.44c-.112.192-.168.437-.168.736V133h-.64zm4.463-4.08c.379 0 .712.083 1 .248.294.165.523.405.688.72.166.309.248.68.248 1.112 0 .432-.082.805-.248 1.12a1.737 1.737 0 01-.688.712 1.976 1.976 0 01-1 .248c-.373 0-.706-.083-1-.248a1.737 1.737 0 01-.688-.712c-.165-.315-.248-.688-.248-1.12 0-.432.083-.803.248-1.112.166-.315.395-.555.688-.72a2.004 2.004 0 011-.248zm0 .552c-.405 0-.722.136-.952.408-.229.272-.344.645-.344 1.12 0 .475.115.848.344 1.12.23.272.547.408.952.408.406 0 .723-.136.952-.408.23-.272.344-.645.344-1.12 0-.475-.114-.848-.344-1.12-.229-.272-.546-.408-.952-.408zm4.464-.552c.379 0 .712.083 1 .248.293.165.523.405.688.72.165.309.248.68.248 1.112 0 .432-.083.805-.248 1.12a1.736 1.736 0 01-.688.712 1.976 1.976 0 01-1 .248c-.373 0-.707-.083-1-.248a1.737 1.737 0 01-.688-.712c-.165-.315-.248-.688-.248-1.12 0-.432.083-.803.248-1.112.165-.315.395-.555.688-.72a2.005 2.005 0 011-.248zm0 .552c-.405 0-.723.136-.952.408-.23.272-.344.645-.344 1.12 0 .475.114.848.344 1.12.23.272.547.408.952.408.405 0 .723-.136.952-.408.23-.272.344-.645.344-1.12 0-.475-.115-.848-.344-1.12-.23-.272-.547-.408-.952-.408zM49.728 133v-4h.56l.04.624a1.32 1.32 0 01.56-.536c.235-.112.475-.168.72-.168.283 0 .55.064.8.192.251.128.443.325.576.592.086-.181.206-.328.36-.44.155-.117.323-.203.504-.256a1.7 1.7 0 011.256.072c.235.107.427.272.576.496.15.224.224.512.224.864V133h-.64v-2.496c0-.363-.09-.624-.272-.784a.98.98 0 00-.672-.24 1.147 1.147 0 00-1.024.6c-.106.197-.16.44-.16.728V133h-.64v-2.496c0-.363-.09-.624-.272-.784a.98.98 0 00-.672-.24c-.176 0-.357.048-.544.144a1.123 1.123 0 00-.456.44c-.122.203-.184.469-.184.8V133h-.64zM61.166 84v-5.28h1.88c.624 0 1.08.13 1.368.392.288.261.432.616.432 1.064 0 .267-.077.51-.232.728-.155.213-.373.35-.656.408v.008c.315.059.563.203.744.432.187.224.28.48.28.768 0 .448-.168.808-.504 1.08-.336.267-.816.4-1.44.4h-1.872zm.64-2.96h1.248c.747 0 1.12-.288 1.12-.864 0-.57-.373-.856-1.12-.856h-1.248v1.72zm0 2.36h1.384c.379 0 .659-.077.84-.232.187-.155.28-.37.28-.648 0-.283-.093-.499-.28-.648-.181-.155-.461-.232-.84-.232h-1.384v1.76zm6.47-1.984c0-.299-.08-.528-.24-.688-.16-.165-.387-.248-.68-.248-.278 0-.513.061-.705.184-.192.117-.333.31-.424.576l-.52-.32a1.39 1.39 0 01.592-.72c.288-.187.646-.28 1.072-.28.288 0 .55.05.784.152.235.096.419.245.552.448.139.197.208.453.208.768v1.936c0 .192.102.288.304.288.102 0 .2-.013.296-.04l-.032.504a.933.933 0 01-.416.08.901.901 0 01-.512-.144.685.685 0 01-.272-.44 1.25 1.25 0 01-.568.464c-.24.096-.477.144-.712.144a1.77 1.77 0 01-.656-.12c-.202-.08-.365-.2-.488-.36a1.024 1.024 0 01-.176-.608c0-.299.099-.544.296-.736.203-.197.483-.33.84-.4l1.456-.288v-.152zm-1.937 1.544c0 .165.064.301.192.408.134.101.32.152.56.152.208 0 .4-.035.576-.104.182-.075.328-.184.44-.328a.92.92 0 00.168-.568v-.424l-1.16.24c-.261.053-.456.128-.584.224a.472.472 0 00-.192.4zM72.381 80v.552h-1.456v2.344c0 .197.056.344.168.44a.64.64 0 00.432.144.923.923 0 00.704-.296l.224.536c-.123.112-.27.2-.44.264a1.59 1.59 0 01-.576.096c-.203 0-.392-.035-.568-.104a.959.959 0 01-.424-.344c-.101-.16-.155-.368-.16-.624v-2.456h-.8V80h.8v-.96l.64-.176V80h1.456zm.618 4v-5.84h.64v2.44c.139-.24.323-.413.552-.52.23-.107.48-.16.752-.16.288 0 .55.056.784.168.235.107.421.272.56.496.144.224.216.51.216.856V84h-.64v-2.336c0-.443-.096-.75-.288-.92a.975.975 0 00-.696-.264c-.192 0-.384.045-.576.136-.192.09-.352.24-.48.448-.122.203-.184.475-.184.816V84H73zm4.62 0v-4h.52l.088.656c.224-.49.65-.736 1.28-.736.07 0 .144.005.224.016.085.01.157.032.216.064l-.112.584a1.017 1.017 0 00-.192-.048 2.072 2.072 0 00-.296-.016c-.165 0-.333.048-.504.144a1.146 1.146 0 00-.416.44c-.112.192-.168.437-.168.736V84h-.64zm4.463-4.08c.379 0 .712.083 1 .248.294.165.523.405.688.72.166.31.248.68.248 1.112 0 .432-.082.805-.248 1.12-.165.31-.394.547-.688.712a1.973 1.973 0 01-1 .248c-.373 0-.706-.083-1-.248a1.737 1.737 0 01-.688-.712c-.165-.315-.248-.688-.248-1.12 0-.432.083-.803.248-1.112.166-.315.395-.555.688-.72a2.001 2.001 0 011-.248zm0 .552c-.405 0-.722.136-.952.408-.229.272-.344.645-.344 1.12 0 .475.115.848.344 1.12.23.272.547.408.952.408.406 0 .723-.136.952-.408.23-.272.344-.645.344-1.12 0-.475-.114-.848-.344-1.12-.229-.272-.546-.408-.952-.408zm4.464-.552c.378 0 .712.083 1 .248.293.165.522.405.688.72.165.31.248.68.248 1.112 0 .432-.083.805-.248 1.12-.165.31-.395.547-.688.712a1.973 1.973 0 01-1 .248c-.374 0-.707-.083-1-.248a1.737 1.737 0 01-.688-.712c-.166-.315-.248-.688-.248-1.12 0-.432.082-.803.248-1.112.165-.315.394-.555.688-.72a2.002 2.002 0 011-.248zm0 .552c-.406 0-.723.136-.952.408-.23.272-.344.645-.344 1.12 0 .475.115.848.344 1.12.23.272.547.408.952.408.405 0 .722-.136.952-.408.23-.272.344-.645.344-1.12 0-.475-.115-.848-.344-1.12-.23-.272-.547-.408-.952-.408zm4.463-.552c.379 0 .712.083 1 .248.294.165.523.405.688.72.166.31.248.68.248 1.112 0 .432-.082.805-.248 1.12-.165.31-.394.547-.688.712a1.973 1.973 0 01-1 .248c-.373 0-.706-.083-1-.248a1.736 1.736 0 01-.688-.712c-.165-.315-.248-.688-.248-1.12 0-.432.083-.803.248-1.112.166-.315.395-.555.688-.72a2.001 2.001 0 011-.248zm0 .552c-.405 0-.722.136-.952.408-.229.272-.344.645-.344 1.12 0 .475.115.848.344 1.12.23.272.547.408.952.408.406 0 .723-.136.952-.408.23-.272.344-.645.344-1.12 0-.475-.114-.848-.344-1.12-.229-.272-.546-.408-.952-.408zM93.817 84v-4h.56l.04.624c.144-.245.33-.424.56-.536.235-.112.475-.168.72-.168.283 0 .55.064.8.192s.443.325.576.592c.085-.181.205-.328.36-.44.155-.117.323-.203.504-.256.187-.059.363-.088.528-.088.256 0 .499.053.728.16.235.107.427.272.576.496.15.224.224.512.224.864V84h-.64v-2.496c0-.363-.09-.624-.272-.784a.979.979 0 00-.672-.24 1.147 1.147 0 00-1.024.6c-.107.197-.16.44-.16.728V84h-.64v-2.496c0-.363-.09-.624-.272-.784a.979.979 0 00-.672-.24c-.176 0-.357.048-.544.144-.181.09-.333.237-.456.44s-.184.47-.184.8V84h-.64zM95.827 48.72v.6h-1.84V54h-.64v-4.68h-1.84v-.6h4.32zm1.436 1.2c.379 0 .712.083 1 .248.294.165.523.405.688.72.166.31.248.68.248 1.112 0 .432-.082.805-.248 1.12-.165.31-.394.547-.688.712a1.973 1.973 0 01-1 .248c-.373 0-.706-.083-1-.248a1.736 1.736 0 01-.688-.712c-.165-.315-.248-.688-.248-1.12 0-.432.083-.803.248-1.112.166-.315.395-.555.688-.72a2.001 2.001 0 011-.248zm0 .552c-.405 0-.722.136-.952.408-.23.272-.344.645-.344 1.12 0 .475.115.848.344 1.12.23.272.547.408.952.408.406 0 .723-.136.952-.408.23-.272.344-.645.344-1.12 0-.475-.114-.848-.344-1.12-.23-.272-.546-.408-.952-.408zm3.128-1.24a.492.492 0 01-.352-.128.492.492 0 01-.128-.352c0-.144.043-.259.128-.344a.475.475 0 01.352-.136.45.45 0 01.344.136c.09.085.136.2.136.344a.479.479 0 01-.136.352.466.466 0 01-.344.128zm.32.768v4h-.64v-4h.64zm1.759-1.84v4.824c0 .203.038.344.112.424.075.075.195.112.36.112a1.2 1.2 0 00.264-.024 2.48 2.48 0 00.28-.088l-.104.56a1.5 1.5 0 01-.592.112c-.64 0-.96-.357-.96-1.072V48.16h.64zm3.176 5.92c-.378 0-.717-.083-1.016-.248a1.743 1.743 0 01-.688-.712c-.165-.315-.248-.688-.248-1.12 0-.432.083-.803.248-1.112.166-.315.392-.555.68-.72.288-.165.616-.248.984-.248.374 0 .691.08.952.24.267.16.47.379.608.656.139.272.208.579.208.92 0 .09-.002.173-.008.248a1.716 1.716 0 01-.024.2h-3.016c.032.421.163.75.392.984.23.235.534.352.912.352.294 0 .531-.056.712-.168.187-.112.336-.264.448-.456l.504.296a1.642 1.642 0 01-.648.648c-.277.16-.61.24-1 .24zm-.056-3.6c-.336 0-.613.101-.832.304-.213.197-.349.475-.408.832h2.384c-.016-.363-.128-.643-.336-.84-.208-.197-.477-.296-.808-.296zm4.951-.48v.552h-1.456v2.344c0 .197.056.344.168.44a.64.64 0 00.432.144.922.922 0 00.704-.296l.224.536c-.123.112-.269.2-.44.264a1.587 1.587 0 01-.576.096c-.203 0-.392-.035-.568-.104a.96.96 0 01-.424-.344c-.101-.16-.155-.368-.16-.624v-2.456h-.8V50h.8v-.96l.64-.176V50h1.456zM111.138 173.4h3.024v.6h-3.664v-5.28h.64v4.68zm4.008-4.168a.495.495 0 01-.352-.128.495.495 0 01-.128-.352c0-.144.043-.259.128-.344a.476.476 0 01.352-.136c.144 0 .259.045.344.136.091.085.136.2.136.344a.476.476 0 01-.136.352.466.466 0 01-.344.128zm.32.768v4h-.64v-4h.64zm3.8 0h.672l-1.664 4h-.64l-1.664-4h.728l1.264 3.352 1.304-3.352zm1.495-.768a.493.493 0 01-.352-.128.49.49 0 01-.128-.352c0-.144.042-.259.128-.344a.474.474 0 01.352-.136.45.45 0 01.344.136c.09.085.136.2.136.344a.48.48 0 01-.136.352.467.467 0 01-.344.128zm.32.768v4h-.64v-4h.64zm1.151 4v-4h.56l.04.624a1.2 1.2 0 01.568-.536c.24-.112.499-.168.776-.168.288 0 .55.056.784.168.235.107.422.272.56.496.144.224.216.509.216.856V174h-.64v-2.336c0-.443-.096-.749-.288-.92a.973.973 0 00-.696-.264c-.192 0-.384.045-.576.136a1.146 1.146 0 00-.48.44c-.122.203-.184.475-.184.816V174h-.64zm6.772-.512c.379 0 .675.088.888.264.213.171.32.4.32.688a.974.974 0 01-.264.68 1.613 1.613 0 01-.696.44c-.288.107-.613.16-.976.16-.629 0-1.101-.107-1.416-.32-.309-.213-.464-.469-.464-.768 0-.181.051-.347.152-.496.101-.149.269-.256.504-.32a.837.837 0 01-.312-.24.69.69 0 01-.12-.424c0-.165.048-.315.144-.448a.905.905 0 01.432-.32 1.21 1.21 0 01-.464-.464 1.308 1.308 0 01-.16-.648c0-.267.069-.501.208-.704.144-.203.339-.36.584-.472.245-.117.528-.176.848-.176a2 2 0 01.904.2.904.904 0 01.352-.624c.203-.155.44-.232.712-.232h.04l.144.568h-.056c-.245 0-.437.045-.576.136-.139.091-.216.232-.232.424.235.245.352.539.352.88 0 .261-.069.496-.208.704a1.41 1.41 0 01-.584.48 2.021 2.021 0 01-.848.168c-.197 0-.381-.019-.552-.056-.16.048-.275.115-.344.2a.436.436 0 00-.104.28c0 .293.208.44.624.44h1.168zm-.792-3.048c-.277 0-.509.077-.696.232a.727.727 0 00-.28.6c0 .245.093.445.28.6.187.155.419.232.696.232.277 0 .509-.077.696-.232a.743.743 0 00.28-.6.727.727 0 00-.28-.6 1.054 1.054 0 00-.696-.232zm.056 4.744c.464 0 .805-.069 1.024-.208.219-.133.328-.288.328-.464a.404.404 0 00-.176-.344c-.112-.085-.317-.128-.616-.128h-1.232a.716.716 0 00-.432.128.441.441 0 00-.176.368c0 .197.112.355.336.472.229.117.544.176.944.176zm-16.107 2.536c.539 0 .971.139 1.296.416.325.277.488.653.488 1.128 0 .379-.107.691-.32.936-.213.245-.501.413-.864.504l1.504 2.296h-.76l-1.44-2.192h-1.264V183h-.64v-5.28h2zm-.008 2.488c.747 0 1.12-.315 1.12-.944s-.373-.944-1.12-.944h-1.352v1.888h1.352zm4.398-1.288c.379 0 .712.083 1 .248.293.165.523.405.688.72.165.309.248.68.248 1.112 0 .432-.083.805-.248 1.12a1.737 1.737 0 01-.688.712 1.975 1.975 0 01-1 .248c-.373 0-.707-.083-1-.248a1.737 1.737 0 01-.688-.712c-.165-.315-.248-.688-.248-1.12 0-.432.083-.803.248-1.112.165-.315.395-.555.688-.72a2.004 2.004 0 011-.248zm0 .552c-.405 0-.723.136-.952.408-.229.272-.344.645-.344 1.12 0 .475.115.848.344 1.12.229.272.547.408.952.408.405 0 .723-.136.952-.408.229-.272.344-.645.344-1.12 0-.475-.115-.848-.344-1.12-.229-.272-.547-.408-.952-.408zm4.464-.552c.378 0 .712.083 1 .248.293.165.522.405.688.72.165.309.248.68.248 1.112 0 .432-.083.805-.248 1.12a1.743 1.743 0 01-.688.712 1.978 1.978 0 01-1 .248c-.374 0-.707-.083-1-.248a1.73 1.73 0 01-.688-.712c-.166-.315-.248-.688-.248-1.12 0-.432.082-.803.248-1.112.165-.315.394-.555.688-.72a2.002 2.002 0 011-.248zm0 .552c-.406 0-.723.136-.952.408-.23.272-.344.645-.344 1.12 0 .475.114.848.344 1.12.229.272.546.408.952.408.405 0 .722-.136.952-.408.229-.272.344-.645.344-1.12 0-.475-.115-.848-.344-1.12-.23-.272-.547-.408-.952-.408zm2.807 3.528v-4h.56l.04.624c.144-.245.331-.424.56-.536.235-.112.475-.168.72-.168.283 0 .549.064.8.192s.443.325.576.592c.085-.181.205-.328.36-.44a1.56 1.56 0 01.504-.256 1.7 1.7 0 011.256.072c.235.107.427.272.576.496.149.224.224.512.224.864V183h-.64v-2.496c0-.363-.091-.624-.272-.784a.978.978 0 00-.672-.24 1.15 1.15 0 00-1.024.6c-.107.197-.16.44-.16.728V183h-.64v-2.496c0-.363-.091-.624-.272-.784a.978.978 0 00-.672-.24c-.176 0-.357.048-.544.144a1.128 1.128 0 00-.456.44c-.123.203-.184.469-.184.8V183h-.64zM182.831 84.72c.827 0 1.475.23 1.944.688.475.453.712 1.104.712 1.952 0 .848-.237 1.501-.712 1.96-.469.453-1.117.68-1.944.68h-1.704v-5.28h1.704zm.064 4.68c.603 0 1.072-.179 1.408-.536.341-.363.512-.864.512-1.504s-.171-1.139-.512-1.496c-.336-.363-.805-.544-1.408-.544h-1.128v4.08h1.128zm3.825-4.168a.493.493 0 01-.352-.128.494.494 0 01-.128-.352c0-.144.043-.259.128-.344a.477.477 0 01.352-.136.45.45 0 01.344.136c.091.085.136.2.136.344a.475.475 0 01-.136.352.464.464 0 01-.344.128zm.32.768v4h-.64v-4h.64zm1.152 4v-4h.56l.04.624a1.2 1.2 0 01.568-.536c.24-.112.499-.168.776-.168.288 0 .549.056.784.168.235.107.421.272.56.496.144.224.216.51.216.856V90h-.64v-2.336c0-.443-.096-.75-.288-.92a.976.976 0 00-.696-.264c-.192 0-.384.045-.576.136-.192.09-.352.237-.48.44-.123.203-.184.475-.184.816V90h-.64zm4.94-4.768a.492.492 0 01-.352-.128.49.49 0 01-.128-.352c0-.144.042-.259.128-.344a.475.475 0 01.352-.136.45.45 0 01.344.136c.09.085.136.2.136.344a.479.479 0 01-.136.352.466.466 0 01-.344.128zm.32.768v4h-.64v-4h.64zm1.151 4v-4h.56l.04.624a1.2 1.2 0 01.568-.536c.24-.112.499-.168.776-.168.288 0 .55.056.784.168.235.107.422.272.56.496.144.224.216.51.216.856V90h-.64v-2.336c0-.443-.096-.75-.288-.92a.973.973 0 00-.696-.264c-.192 0-.384.045-.576.136-.192.09-.352.237-.48.44-.122.203-.184.475-.184.816V90h-.64zm6.772-.512c.379 0 .675.088.888.264.214.17.32.4.32.688a.973.973 0 01-.264.68c-.17.192-.402.339-.696.44-.288.107-.613.16-.976.16-.629 0-1.101-.107-1.416-.32-.309-.213-.464-.47-.464-.768 0-.181.051-.347.152-.496.102-.15.27-.256.504-.32a.83.83 0 01-.312-.24.69.69 0 01-.12-.424c0-.165.048-.315.144-.448a.905.905 0 01.432-.32 1.218 1.218 0 01-.464-.464 1.319 1.319 0 01-.16-.648c0-.267.07-.501.208-.704.144-.203.339-.36.584-.472.246-.117.528-.176.848-.176.336 0 .638.067.904.2a.908.908 0 01.352-.624 1.14 1.14 0 01.712-.232h.04l.144.568h-.056c-.245 0-.437.045-.576.136a.528.528 0 00-.232.424c.235.245.352.539.352.88 0 .261-.069.496-.208.704a1.407 1.407 0 01-.584.48 2.021 2.021 0 01-.848.168c-.197 0-.381-.019-.552-.056-.16.048-.274.115-.344.2a.436.436 0 00-.104.28c0 .293.208.44.624.44h1.168zm-.792-3.048c-.277 0-.509.077-.696.232a.73.73 0 00-.28.6c0 .245.094.445.28.6.187.155.419.232.696.232.278 0 .51-.077.696-.232a.742.742 0 00.28-.6c0-.25-.093-.45-.28-.6a1.052 1.052 0 00-.696-.232zm.056 4.744c.464 0 .806-.07 1.024-.208.219-.133.328-.288.328-.464a.402.402 0 00-.176-.344c-.112-.085-.317-.128-.616-.128h-1.232a.718.718 0 00-.432.128.441.441 0 00-.176.368c0 .197.112.355.336.472.23.117.544.176.944.176zm-16.978 2.536c.539 0 .971.139 1.296.416.325.277.488.653.488 1.128 0 .379-.107.69-.32.936-.213.245-.501.413-.864.504L185.765 99h-.76l-1.44-2.192h-1.264V99h-.64v-5.28h2zm-.008 2.488c.747 0 1.12-.315 1.12-.944 0-.63-.373-.944-1.12-.944h-1.352v1.888h1.352zm4.398-1.288c.379 0 .712.083 1 .248.293.165.523.405.688.72.165.31.248.68.248 1.112 0 .432-.083.805-.248 1.12-.165.31-.395.547-.688.712a1.972 1.972 0 01-1 .248c-.373 0-.707-.083-1-.248a1.737 1.737 0 01-.688-.712c-.165-.315-.248-.688-.248-1.12 0-.432.083-.803.248-1.112.165-.315.395-.555.688-.72a2.001 2.001 0 011-.248zm0 .552c-.405 0-.723.136-.952.408-.229.272-.344.645-.344 1.12 0 .475.115.848.344 1.12.229.272.547.408.952.408.405 0 .723-.136.952-.408.229-.272.344-.645.344-1.12 0-.475-.115-.848-.344-1.12-.229-.272-.547-.408-.952-.408zm4.464-.552c.378 0 .712.083 1 .248.293.165.522.405.688.72.165.31.248.68.248 1.112 0 .432-.083.805-.248 1.12-.166.31-.395.547-.688.712a1.975 1.975 0 01-1 .248c-.374 0-.707-.083-1-.248a1.73 1.73 0 01-.688-.712c-.166-.315-.248-.688-.248-1.12 0-.432.082-.803.248-1.112.165-.315.394-.555.688-.72a1.999 1.999 0 011-.248zm0 .552c-.406 0-.723.136-.952.408-.23.272-.344.645-.344 1.12 0 .475.114.848.344 1.12.229.272.546.408.952.408.405 0 .722-.136.952-.408.229-.272.344-.645.344-1.12 0-.475-.115-.848-.344-1.12-.23-.272-.547-.408-.952-.408zM195.322 99v-4h.56l.04.624a1.32 1.32 0 01.56-.536c.235-.112.475-.168.72-.168.283 0 .549.064.8.192s.443.325.576.592c.085-.181.205-.328.36-.44a1.56 1.56 0 01.504-.256 1.704 1.704 0 011.256.072c.235.107.427.272.576.496.149.224.224.512.224.864V99h-.64v-2.496c0-.363-.091-.624-.272-.784a.978.978 0 00-.672-.24 1.15 1.15 0 00-1.024.6 1.51 1.51 0 00-.16.728V99h-.64v-2.496c0-.363-.091-.624-.272-.784a.978.978 0 00-.672-.24c-.176 0-.357.048-.544.144-.181.09-.333.237-.456.44s-.184.47-.184.8V99h-.64zM168.188 27.72v3.312c0 .677-.179 1.19-.536 1.536-.357.341-.869.512-1.536.512-.661 0-1.173-.17-1.536-.512-.357-.347-.536-.859-.536-1.536V27.72h.64v3.152c0 .55.115.955.344 1.216.235.261.597.392 1.088.392.491 0 .851-.13 1.08-.392.235-.261.352-.667.352-1.216V27.72h.64zm3.571 1.28v.552h-1.456v2.344c0 .197.056.344.168.44a.64.64 0 00.432.144.925.925 0 00.704-.296l.224.536c-.123.112-.27.2-.44.264a1.595 1.595 0 01-.576.096c-.203 0-.392-.035-.568-.104a.955.955 0 01-.424-.344c-.102-.16-.155-.368-.16-.624v-2.456h-.8V29h.8v-.96l.64-.176V29h1.456zm.938-.768a.492.492 0 01-.352-.128.49.49 0 01-.128-.352c0-.144.042-.259.128-.344a.475.475 0 01.352-.136.45.45 0 01.344.136c.09.085.136.2.136.344a.479.479 0 01-.136.352.466.466 0 01-.344.128zm.32.768v4h-.64v-4h.64zm1.759-1.84v4.824c0 .203.038.344.112.424.075.075.195.112.36.112a1.2 1.2 0 00.264-.024 2.48 2.48 0 00.28-.088l-.104.56a1.5 1.5 0 01-.592.112c-.64 0-.96-.357-.96-1.072V27.16h.64zm1.824 1.072a.493.493 0 01-.352-.128.494.494 0 01-.128-.352c0-.144.043-.259.128-.344a.477.477 0 01.352-.136.45.45 0 01.344.136c.091.085.136.2.136.344a.475.475 0 01-.136.352.464.464 0 01-.344.128zm.32.768v4h-.64v-4h.64zm3.552 0v.552h-1.456v2.344c0 .197.056.344.168.44a.64.64 0 00.432.144.922.922 0 00.704-.296l.224.536c-.123.112-.269.2-.44.264a1.587 1.587 0 01-.576.096c-.203 0-.392-.035-.568-.104a.96.96 0 01-.424-.344c-.101-.16-.155-.368-.16-.624v-2.456h-.8V29h.8v-.96l.64-.176V29h1.456zm3.906 0l-1.88 4.672c-.154.39-.33.661-.528.816a1.098 1.098 0 01-.712.232 1.54 1.54 0 01-.504-.08 1.42 1.42 0 01-.4-.2l.176-.56c.107.096.219.165.336.208a.987.987 0 00.36.072c.139 0 .27-.043.392-.128.123-.085.235-.259.336-.52l.208-.52-.4-.952L180.49 29h.728l1 2.608.248.712.288-.792.936-2.528h.688zm5.222-1.84l-2.448 6.4h-.6l2.448-6.4h.6zm4.84.48c.464 0 .864.096 1.2.288.336.187.616.464.84.832l-.536.416c-.197-.341-.421-.581-.672-.72-.245-.144-.544-.216-.896-.216-.426 0-.738.085-.936.256a.796.796 0 00-.12 1.12c.118.139.352.248.704.328l1.144.256c.507.112.859.283 1.056.512.203.224.304.504.304.84 0 .299-.085.565-.256.8-.165.23-.4.408-.704.536a2.748 2.748 0 01-1.072.192c-.57 0-1.042-.112-1.416-.336a2.522 2.522 0 01-.856-.832l.56-.456c.155.304.374.552.656.744.288.187.654.28 1.096.28.411 0 .734-.075.968-.224.24-.15.36-.365.36-.648a.69.69 0 00-.168-.456c-.112-.139-.322-.243-.632-.312l-1.24-.28c-.49-.107-.84-.28-1.048-.52a1.255 1.255 0 01-.304-.832c0-.283.078-.541.232-.776.16-.24.387-.432.68-.576.299-.144.651-.216 1.056-.216zm5.376 1.36v.552h-1.456v2.344c0 .197.056.344.168.44a.64.64 0 00.432.144.922.922 0 00.704-.296l.224.536c-.123.112-.269.2-.44.264a1.587 1.587 0 01-.576.096c-.203 0-.392-.035-.568-.104a.96.96 0 01-.424-.344c-.101-.16-.155-.368-.16-.624v-2.456h-.8V29h.8v-.96l.64-.176V29h1.456zm2.274-.08c.379 0 .712.083 1 .248.293.165.523.405.688.72.165.31.248.68.248 1.112 0 .432-.083.805-.248 1.12-.165.31-.395.547-.688.712a1.972 1.972 0 01-1 .248c-.373 0-.707-.083-1-.248a1.737 1.737 0 01-.688-.712c-.165-.315-.248-.688-.248-1.12 0-.432.083-.803.248-1.112.165-.315.395-.555.688-.72a2.001 2.001 0 011-.248zm0 .552c-.405 0-.723.136-.952.408-.229.272-.344.645-.344 1.12 0 .475.115.848.344 1.12.229.272.547.408.952.408.405 0 .723-.136.952-.408.229-.272.344-.645.344-1.12 0-.475-.115-.848-.344-1.12-.229-.272-.547-.408-.952-.408zM204.898 33v-4h.52l.088.656c.224-.49.65-.736 1.28-.736a1.7 1.7 0 01.224.016c.085.01.157.032.216.064l-.112.584a1.029 1.029 0 00-.192-.048 2.078 2.078 0 00-.296-.016 1.02 1.02 0 00-.504.144 1.141 1.141 0 00-.416.44c-.112.192-.168.437-.168.736V33h-.64zm5.159-2.584c0-.299-.08-.528-.24-.688-.16-.165-.387-.248-.68-.248a1.28 1.28 0 00-.704.184c-.192.117-.334.31-.424.576l-.52-.32c.106-.299.304-.539.592-.72.288-.187.645-.28 1.072-.28.288 0 .549.05.784.152.234.096.418.245.552.448.138.197.208.453.208.768v1.936c0 .192.101.288.304.288.101 0 .2-.013.296-.04l-.032.504a.936.936 0 01-.416.08.9.9 0 01-.512-.144.68.68 0 01-.272-.44 1.251 1.251 0 01-.568.464 1.91 1.91 0 01-.712.144c-.235 0-.454-.04-.656-.12a1.11 1.11 0 01-.488-.36 1.019 1.019 0 01-.176-.608.98.98 0 01.296-.736c.202-.197.482-.33.84-.4l1.456-.288v-.152zm-1.936 1.544c0 .165.064.301.192.408.133.101.32.152.56.152.208 0 .4-.035.576-.104.181-.075.328-.184.44-.328a.92.92 0 00.168-.568v-.424l-1.16.24c-.262.053-.456.128-.584.224a.472.472 0 00-.192.4zm5.949.528c.379 0 .675.088.888.264.214.17.32.4.32.688a.973.973 0 01-.264.68c-.17.192-.402.339-.696.44-.288.107-.613.16-.976.16-.629 0-1.101-.107-1.416-.32-.309-.213-.464-.47-.464-.768 0-.181.051-.347.152-.496.102-.15.27-.256.504-.32a.83.83 0 01-.312-.24.69.69 0 01-.12-.424c0-.165.048-.315.144-.448a.905.905 0 01.432-.32 1.218 1.218 0 01-.464-.464 1.319 1.319 0 01-.16-.648c0-.267.07-.501.208-.704.144-.203.339-.36.584-.472.246-.117.528-.176.848-.176.336 0 .638.067.904.2a.908.908 0 01.352-.624 1.14 1.14 0 01.712-.232h.04l.144.568h-.056c-.245 0-.437.045-.576.136a.528.528 0 00-.232.424c.235.245.352.539.352.88 0 .261-.069.496-.208.704a1.407 1.407 0 01-.584.48 2.021 2.021 0 01-.848.168c-.197 0-.381-.019-.552-.056-.16.048-.274.115-.344.2a.436.436 0 00-.104.28c0 .293.208.44.624.44h1.168zm-.792-3.048c-.277 0-.509.077-.696.232a.73.73 0 00-.28.6c0 .245.094.445.28.6.187.155.419.232.696.232.278 0 .51-.077.696-.232a.742.742 0 00.28-.6c0-.25-.093-.45-.28-.6a1.052 1.052 0 00-.696-.232zm.056 4.744c.464 0 .806-.07 1.024-.208.219-.133.328-.288.328-.464a.402.402 0 00-.176-.344c-.112-.085-.317-.128-.616-.128h-1.232a.718.718 0 00-.432.128.441.441 0 00-.176.368c0 .197.112.355.336.472.23.117.544.176.944.176zm4.181-1.104c-.379 0-.717-.083-1.016-.248a1.737 1.737 0 01-.688-.712c-.165-.315-.248-.688-.248-1.12 0-.432.083-.803.248-1.112.165-.315.392-.555.68-.72.288-.165.616-.248.984-.248.373 0 .691.08.952.24.267.16.469.379.608.656.139.272.208.579.208.92 0 .09-.003.173-.008.248a1.716 1.716 0 01-.024.2h-3.016c.032.421.163.75.392.984.229.235.533.352.912.352.293 0 .531-.056.712-.168.187-.112.336-.264.448-.456l.504.296a1.642 1.642 0 01-.648.648c-.277.16-.611.24-1 .24zm-.056-3.6c-.336 0-.613.101-.832.304-.213.197-.349.475-.408.832h2.384c-.016-.363-.128-.643-.336-.84-.208-.197-.477-.296-.808-.296zM177.641 167.72v2.72l2.656-2.72h.84l-2.104 2.152 2.128 3.128h-.768l-1.808-2.656-.944.96V173h-.64v-5.28h.64zm4.476.512a.495.495 0 01-.352-.128.495.495 0 01-.128-.352c0-.144.043-.259.128-.344a.476.476 0 01.352-.136c.144 0 .259.045.344.136.091.085.136.2.136.344a.476.476 0 01-.136.352.466.466 0 01-.344.128zm.32.768v4h-.64v-4h.64zm3.552 0v.552h-1.456v2.344c0 .197.056.344.168.44a.64.64 0 00.432.144.927.927 0 00.704-.296l.224.536c-.123.112-.269.2-.44.264a1.587 1.587 0 01-.576.096c-.203 0-.392-.035-.568-.104a.96.96 0 01-.424-.344c-.101-.16-.155-.368-.16-.624v-2.456h-.8V169h.8v-.96l.64-.176V169h1.456zm2.274-.08c.411 0 .752.096 1.024.288.272.187.483.445.632.776l-.608.288a1.168 1.168 0 00-.392-.584c-.17-.139-.394-.208-.672-.208-.4 0-.714.136-.944.408-.224.267-.336.637-.336 1.112 0 .475.112.848.336 1.12.23.267.544.4.944.4.315 0 .566-.072.752-.216.187-.144.31-.347.368-.608l.592.208a1.78 1.78 0 01-.632.864c-.282.208-.637.312-1.064.312-.373 0-.706-.083-1-.248a1.743 1.743 0 01-.688-.712c-.165-.315-.248-.688-.248-1.12 0-.432.083-.803.248-1.112.166-.315.395-.555.688-.72a2.007 2.007 0 011-.248zm2.488 4.08v-5.84h.64v2.44c.138-.24.322-.413.552-.52.229-.107.48-.16.752-.16.288 0 .549.056.784.168.234.107.421.272.56.496.144.224.216.509.216.856V173h-.64v-2.336c0-.443-.096-.749-.288-.92a.976.976 0 00-.696-.264c-.192 0-.384.045-.576.136-.192.091-.352.24-.48.448-.123.203-.184.475-.184.816V173h-.64zm6.291.08c-.378 0-.717-.083-1.016-.248a1.743 1.743 0 01-.688-.712c-.165-.315-.248-.688-.248-1.12 0-.432.083-.803.248-1.112a1.74 1.74 0 01.68-.72c.288-.165.616-.248.984-.248.374 0 .691.08.952.24.267.16.47.379.608.656.139.272.208.579.208.92 0 .091-.002.173-.008.248a1.716 1.716 0 01-.024.2h-3.016c.032.421.163.749.392.984.23.235.534.352.912.352.294 0 .531-.056.712-.168.187-.112.336-.264.448-.456l.504.296a1.642 1.642 0 01-.648.648c-.277.16-.61.24-1 .24zm-.056-3.6c-.336 0-.613.101-.832.304-.213.197-.349.475-.408.832h2.384c-.016-.363-.128-.643-.336-.84-.208-.197-.477-.296-.808-.296zm2.668 3.52v-4h.56l.04.624a1.2 1.2 0 01.568-.536c.24-.112.499-.168.776-.168.288 0 .549.056.784.168.235.107.421.272.56.496.144.224.216.509.216.856V173h-.64v-2.336c0-.443-.096-.749-.288-.92a.976.976 0 00-.696-.264c-.192 0-.384.045-.576.136a1.146 1.146 0 00-.48.44c-.123.203-.184.475-.184.816V173h-.64zM30.747 263.04a.351.351 0 01-.247-.088.353.353 0 01-.088-.248v-4.784h-1.72a.323.323 0 01-.224-.072c-.054-.048-.08-.117-.08-.208 0-.091.026-.16.08-.208a.323.323 0 01.224-.072h4.103c.096 0 .171.024.224.072.054.048.08.117.08.208 0 .091-.026.16-.08.208a.323.323 0 01-.224.072h-1.72v4.784c0 .101-.029.184-.087.248a.323.323 0 01-.24.088zm5.063-.944c.059 0 .11.024.152.072a.266.266 0 01.064.184c0 .133-.093.256-.28.368a2.55 2.55 0 01-.608.256c-.213.053-.421.08-.624.08-.603 0-1.08-.179-1.432-.536-.347-.357-.52-.851-.52-1.48 0-.4.077-.752.232-1.056.155-.309.37-.549.648-.72.283-.171.603-.256.96-.256.507 0 .91.165 1.208.496.299.331.448.779.448 1.344 0 .107-.021.184-.064.232-.043.048-.112.072-.208.072H33.21c.048.917.483 1.376 1.304 1.376.208 0 .387-.027.536-.08.15-.059.31-.136.48-.232.139-.08.232-.12.28-.12zm-1.4-2.584c-.341 0-.616.107-.824.32-.203.213-.323.515-.36.904h2.264c-.01-.395-.11-.696-.296-.904-.187-.213-.448-.32-.784-.32zm4.197-.488c.224-.016.336.075.336.272a.3.3 0 01-.072.208c-.048.048-.13.077-.248.088l-.24.024c-.357.032-.624.16-.8.384-.17.219-.256.477-.256.776v1.944c0 .107-.029.187-.088.24a.333.333 0 01-.232.08.364.364 0 01-.24-.08.326.326 0 01-.088-.24v-3.376c0-.101.032-.179.096-.232a.33.33 0 01.232-.088c.086 0 .158.029.216.088a.287.287 0 01.088.224v.448c.112-.235.27-.413.472-.536a1.63 1.63 0 01.712-.216l.112-.008zm2.487 0c.224-.016.336.075.336.272a.3.3 0 01-.072.208c-.048.048-.13.077-.248.088l-.24.024c-.357.032-.624.16-.8.384-.17.219-.256.477-.256.776v1.944c0 .107-.029.187-.088.24a.333.333 0 01-.232.08.364.364 0 01-.24-.08.325.325 0 01-.088-.24v-3.376c0-.101.032-.179.096-.232a.33.33 0 01.232-.088c.086 0 .158.029.216.088a.287.287 0 01.088.224v.448c.112-.235.27-.413.472-.536a1.63 1.63 0 01.712-.216l.112-.008zm2.12-.016c.976 0 1.464.512 1.464 1.536v2.176c0 .096-.03.173-.088.232a.286.286 0 01-.224.088.312.312 0 01-.232-.088.314.314 0 01-.088-.232v-.384a1.169 1.169 0 01-.464.536 1.387 1.387 0 01-.72.184c-.25 0-.483-.051-.696-.152a1.243 1.243 0 01-.496-.424 1.047 1.047 0 01-.184-.6c0-.293.075-.52.224-.68.15-.165.395-.283.736-.352.342-.075.816-.112 1.424-.112h.176v-.264c0-.32-.066-.555-.2-.704-.128-.149-.338-.224-.632-.224-.362 0-.73.099-1.104.296-.144.091-.245.136-.304.136a.205.205 0 01-.16-.072.266.266 0 01-.064-.184c0-.075.021-.139.064-.192a.818.818 0 01.224-.176 2.48 2.48 0 01.632-.248c.24-.064.477-.096.712-.096zm-.264 3.536c.32 0 .581-.107.784-.32.208-.219.312-.499.312-.84v-.232h-.144c-.47 0-.827.021-1.072.064-.245.037-.421.104-.528.2-.101.091-.152.227-.152.408a.68.68 0 00.224.52c.155.133.347.2.576.2zm4.189.512c-.363 0-.685-.083-.968-.248a1.69 1.69 0 01-.648-.704 2.367 2.367 0 01-.224-1.056c0-.4.077-.755.232-1.064.16-.309.381-.549.664-.72.283-.171.608-.256.976-.256.203 0 .403.029.6.088.203.053.379.133.528.24a.63.63 0 01.2.192.331.331 0 01.064.2.266.266 0 01-.064.184.182.182 0 01-.152.072.274.274 0 01-.12-.032 1.043 1.043 0 01-.168-.104 2.43 2.43 0 00-.4-.216 1.151 1.151 0 00-.456-.08c-.39 0-.693.133-.912.4-.213.261-.32.627-.32 1.096 0 .469.107.832.32 1.088.219.256.523.384.912.384.181 0 .336-.027.464-.08.133-.053.267-.125.4-.216.059-.037.115-.069.168-.096a.313.313 0 01.136-.04c.059 0 .107.024.144.072a.266.266 0 01.064.184.353.353 0 01-.056.192.83.83 0 01-.208.184c-.15.101-.33.184-.544.248a2.305 2.305 0 01-.632.088zm4.903-.96c.058 0 .11.024.152.072a.266.266 0 01.064.184c0 .133-.094.256-.28.368a2.55 2.55 0 01-.608.256c-.214.053-.422.08-.624.08-.603 0-1.08-.179-1.432-.536-.347-.357-.52-.851-.52-1.48 0-.4.077-.752.232-1.056.154-.309.37-.549.648-.72.282-.171.602-.256.96-.256.506 0 .91.165 1.208.496.298.331.448.779.448 1.344 0 .107-.022.184-.064.232-.043.048-.112.072-.208.072h-2.576c.048.917.482 1.376 1.304 1.376.208 0 .386-.027.536-.08.15-.059.31-.136.48-.232.138-.08.232-.12.28-.12zm-1.4-2.584c-.342 0-.616.107-.824.32-.203.213-.323.515-.36.904h2.264c-.01-.395-.11-.696-.296-.904-.187-.213-.448-.32-.784-.32z" fill="#000"/></svg>
