<svg fill="none"
  xmlns="http://www.w3.org/2000/svg" viewBox="0 0 242 302">
  <title>First floor floorplan, featuring large master bedroom and two additional bedrooms</title>
  <path d="M161 81h-20v40H81v20h80V81z" stroke="#000"/>
  <path fill="#E6FBFD" stroke="#000" d="M81 141h40v60H81z"/>
  <path fill="#E4FFF1" stroke="#000" d="M121 141h40v60h-40z"/>
  <path fill="#E6FBFD" stroke="#000" d="M161 121h60v100h-60zM1 121h80v100H1z"/>
  <path stroke="#000" stroke-dasharray="2 2" d="M1 221h80v80H1z"/>
  <path stroke="#000" d="M141 97h20v4h-20zM141 93h20v4h-20zM141 101h20v4h-20zM141 105h20v4h-20zM141 89h20v4h-20zM141 113h20v4h-20zM141 109h20v4h-20zM141 85h20v4h-20z"/>
  <path d="M150.646 129.354a.502.502 0 00.708 0l3.182-3.182a.502.502 0 00-.708-.708L151 128.293l-2.828-2.829a.502.502 0 00-.708.708l3.182 3.182zM150.5 107v22h1v-22h-1z" fill="#000"/>
  <text fill="#000" font-size="8" letter-spacing="-.333">
    <tspan x="28.451" y="169.248">Master </tspan>
    <tspan x="24.391" y="178.248">Bedroom</tspan>
  </text>
  <text fill="#000" font-size="8" letter-spacing="-.333">
    <tspan x="92.672" y="167.248">Bunk </tspan>
    <tspan x="91.297" y="176.248">Room</tspan>
  </text>
  <text fill="#000" font-size="8" letter-spacing="-.333">
    <tspan x="182.461" y="169.248">Twin </tspan>
    <tspan x="174.391" y="178.248">Bedroom</tspan>
  </text>
  <text fill="#000" font-size="8" letter-spacing="-.333">
    <tspan x="123.034" y="174.248">Bathroom</tspan>
  </text>
  <text fill="#000" font-size="8" letter-spacing="-.333">
    <tspan x="27.277" y="264.248">Balcony</tspan>
  </text>
</svg>
