<svg fill="none"
  xmlns="http://www.w3.org/2000/svg" viewBox="0 0 242 302">
  <title>Ground floor floorplan, featuring large living room and kitchen/dining room, and two bedrooms</title>
  <path stroke="#000" d="M221 101h20v40h-20z"/>
  <path d="M221 221V121h-60v100h60z" fill="#FFE2E2" stroke="#000"/>
  <path d="M81 121h80v100l-20 20h-40l-20-20V121z" fill="#EAE9FF" stroke="#000"/>
  <path fill="#E6FBFD" stroke="#000" d="M1 151h80v70H1zM1 101h80v50H1z"/>
  <path fill="#E4FFF1" stroke="#000" d="M41 61h80v40H41z"/>
  <path d="M121 121h40V61h-20V41h-20v80z" stroke="#000"/>
  <path fill="#E4FFF1" stroke="#000" d="M81 41h40v20H81z"/>
  <path stroke="#000" stroke-dasharray="2 2" d="M1 221h80v80H1z"/>
  <path fill="#FFF2FF" stroke="#000" d="M141 1h100v60H141z"/>
  <path d="M161 121V61h80v40h-20v20h-60z" fill="#FCFFDA" stroke="#000"/>
  <path stroke="#000" d="M141 81h20v4h-20zM141 85h20v4h-20zM141 89h20v4h-20zM141 97h20v4h-20zM141 93h20v4h-20zM141 81V61h13l-13 20zm0 0l20-13v13"/>
  <path d="M150.646 109.354a.502.502 0 00.708 0l3.182-3.182a.502.502 0 00-.708-.708L151 108.293l-2.828-2.829a.502.502 0 00-.708.708l3.182 3.182zM150.5 87v22h1V87h-1z" fill="#000"/>
  <text fill="#000" font-size="8" letter-spacing="-.333">
    <tspan x="27.044" y="184.248">Double </tspan>
    <tspan x="23.391" y="193.248">Bedroom</tspan>
  </text>
  <text fill="#000" font-size="8" letter-spacing="-.333">
    <tspan x="31.461" y="124.248">Twin </tspan>
    <tspan x="23.391" y="133.248">Bedroom</tspan>
  </text>
  <text fill="#000" font-size="8" letter-spacing="-.333">
    <tspan x="60.302" y="84.248">Bathrooom</tspan>
  </text>
  <text fill="#000" font-size="8" letter-spacing="-.333">
    <tspan x="91.251" y="54.248">Toilet</tspan>
  </text>
  <text fill="#000" font-size="8" letter-spacing="-.333">
    <tspan x="109.634" y="174.248">Living </tspan>
    <tspan x="109.297" y="183.248">Room</tspan>
  </text>
  <text fill="#000" font-size="8" letter-spacing="-.333">
    <tspan x="180.263" y="90.248">Dining </tspan>
    <tspan x="180.797" y="99.248">Room</tspan>
  </text>
  <text fill="#000" font-size="8" letter-spacing="-.333">
    <tspan x="163.284" y="33.248">Utility / Storage</tspan>
  </text>
  <text fill="#000" font-size="8" letter-spacing="-.333">
    <tspan x="177.137" y="173.248">Kitchen</tspan>
  </text>
  <text fill="#000" style="white-space:pre" font-family="Nunito" font-size="8" letter-spacing="-.333">
    <tspan x="28.355" y="263.132">Terrace</tspan>
  </text>
</svg>
