<svg fill="none" xmlns="http://www.w3.org/2000/svg" viewBox="0 0 191 56">
<title>Seagulls</title>
<path d="M25.719 8.586c0 2.453-.742 4.422-2.227 5.906-1.484 1.485-3.445 2.227-5.883 2.227a10.93 10.93 0 01-2.836-.352 7.74 7.74 0 01-2.367-1.148c-.797-.563-1.398-1.235-1.804-2.016-.391-.781-.586-1.656-.586-2.625 0-.812.148-1.531.445-2.156a4.09 4.09 0 011.36-1.617 6.215 6.215 0 011.827-.89c.688-.204 1.454-.306 2.297-.306.516 0 1.008.063 1.477.188.469.125.883.32 1.242.586.422.312.734.672.938 1.078.218.39.328.844.328 1.36 0 .75-.29 1.374-.867 1.874-.563.5-1.235.75-2.016.75-.5 0-.922-.086-1.266-.258a1.766 1.766 0 01-.797-.82 3.442 3.442 0 00.773.094c.548 0 .954-.094 1.22-.281.265-.203.398-.516.398-.938 0-.406-.14-.71-.422-.914C16.672 8.11 16.25 8 15.688 8c-.376 0-.735.055-1.079.164-.343.094-.64.242-.89.445a2.42 2.42 0 00-.68.82 2.08 2.08 0 00-.234.985c0 1.156.375 2.016 1.125 2.578.75.563 1.875.844 3.375.844 1.468 0 2.656-.5 3.562-1.5.906-1.016 1.36-2.266 1.36-3.75 0-.89-.211-1.688-.633-2.39-.407-.704-1.016-1.313-1.828-1.829a7.254 7.254 0 00-2.25-.96 10.903 10.903 0 00-2.649-.305c-1.156 0-2.21.14-3.164.421a7.46 7.46 0 00-2.531 1.29 6.1 6.1 0 00-1.805 2.25c-.406.875-.61 1.875-.61 3 0 1.14.376 2.25 1.126 3.328.75 1.062 1.875 2.101 3.375 3.117 1.406.953 2.805 1.898 4.195 2.836l4.172 2.812c1.5 1.328 2.625 2.79 3.375 4.383.75 1.578 1.125 3.29 1.125 5.133 0 1.734-.313 3.289-.938 4.664-.609 1.36-1.539 2.531-2.789 3.516a12.904 12.904 0 01-3.914 2.086c-1.437.484-3.039.726-4.804.726-1.39 0-2.672-.125-3.844-.375a12.642 12.642 0 01-3.211-1.148c-1.203-.641-2.11-1.43-2.719-2.368-.61-.953-.914-2.062-.914-3.328 0-1.922.516-3.468 1.547-4.64 1.047-1.188 2.516-1.782 4.406-1.782.766 0 1.461.11 2.086.329a5.885 5.885 0 011.711.937c.563.438.977.953 1.242 1.547.282.594.422 1.25.422 1.969 0 1.343-.32 2.351-.96 3.023-.641.656-1.618.984-2.93.984-.704 0-1.32-.195-1.852-.585a1.933 1.933 0 01-.773-1.594c0-.594.132-1.04.398-1.336.281-.297.695-.445 1.242-.445.063 0 .133.007.211.023h.235a1.6 1.6 0 00-.422.445.905.905 0 00-.14.47c0 .312.093.538.28.679.188.14.461.21.82.21.407 0 .704-.124.891-.374.203-.266.305-.664.305-1.196 0-.359-.086-.68-.258-.96-.156-.297-.406-.563-.75-.797a3.15 3.15 0 00-.96-.422 4.17 4.17 0 00-1.102-.14c-1.079 0-1.891.312-2.438.937-.547.609-.82 1.515-.82 2.718 0 .703.164 1.328.492 1.875.328.547.813 1.016 1.453 1.407.531.328 1.125.57 1.781.726.657.156 1.36.234 2.11.234.953 0 1.828-.164 2.625-.492a6.033 6.033 0 002.133-1.5 6.54 6.54 0 001.359-2.18c.312-.796.469-1.687.469-2.671 0-1.032-.32-2.125-.961-3.282-.625-1.171-1.586-2.398-2.883-3.68a145.056 145.056 0 00-3.54-3.374 701.887 701.887 0 01-3.562-3.352C3.594 17.796 2.641 16.461 2 15.148c-.64-1.328-.96-2.625-.96-3.89 0-1.875.327-3.531.983-4.969a9.234 9.234 0 012.93-3.61C6.125 1.806 7.484 1.157 9.031.735c1.563-.437 3.32-.656 5.274-.656 1.437 0 2.789.172 4.054.516 1.282.328 2.461.836 3.54 1.523 1.28.813 2.234 1.758 2.859 2.836.64 1.078.96 2.29.96 3.633z" fill="#00B6F0"/><path d="M54.003 39.219l-1.055 1.054c-.313.297-.586.54-.82.727l1.757 2.625-1.64.96-1.781-2.202c-.625.375-1.29.687-1.993.937a9.48 9.48 0 01-2.25.54l-.046 2.765-2.11-.14.188-2.555c-.72 0-1.485-.078-2.297-.235-.813-.14-1.664-.36-2.555-.656l-1.313 2.813-2.109-1.149 1.43-2.625a12.607 12.607 0 01-2.11-1.453 10.744 10.744 0 01-1.664-1.898l-2.507 1.593-1.055-1.664 2.742-1.43c-.36-.75-.64-1.515-.844-2.296a14.158 14.158 0 01-.398-2.438l-2.508.633-.727-2.063 3.235-.726c.078-.875.21-1.664.398-2.367a8.52 8.52 0 01.727-1.875l-2.274-1.36 1.079-1.78 2.226 1.546c.39-.484.813-.922 1.266-1.313.469-.39.96-.734 1.476-1.03l-1.921-2.79 2.109-1.031 1.547 2.977c.5-.157.953-.282 1.36-.375.405-.094.765-.165 1.077-.211l.633-3.07 1.664.515-.422 2.437c.625 0 1.219.078 1.782.235.562.156 1.101.39 1.617.703l2.32-2.297 1.313 1.102-2.204 2.39c.344.328.664.727.961 1.195.297.454.563.961.797 1.524l2.742-.914.47 1.734-2.65.914c.126.344.227.72.305 1.125.094.407.18.844.258 1.313L39.331 31.53v.258c0 1.14.117 2.219.351 3.234.25 1 .625 1.954 1.125 2.86.594 1.078 1.305 1.89 2.133 2.437.828.532 1.758.797 2.79.797 1.062 0 2.179-.281 3.35-.844 1.173-.562 2.415-1.421 3.727-2.578l1.196 1.524zM44.417 27.71c-.063-.688-.32-1.203-.774-1.547-.437-.344-1.07-.516-1.898-.516-1.016 0-1.961.305-2.836.915-.875.609-1.469 1.39-1.781 2.343l7.289-1.195z" fill="#03AA00"/><path d="M80.294 38.586l-.023 1.266c-2.422 1.093-4.82 1.906-7.195 2.437-2.36.547-4.696.82-7.008.82-1.281 0-2.453-.125-3.516-.375-1.062-.25-2.016-.617-2.86-1.101-1-.578-1.757-1.32-2.273-2.227-.5-.906-.75-1.96-.75-3.164 0-2.125 1.063-4.023 3.188-5.695 2.14-1.672 5.328-3.117 9.562-4.336-.343-1-.93-1.758-1.757-2.273-.813-.516-1.852-.774-3.118-.774-1.36 0-2.593.281-3.703.844-1.11.547-2.094 1.36-2.953 2.437l-1.242-1.195c1.312-2.016 2.937-3.531 4.875-4.547 1.937-1.031 4.195-1.547 6.773-1.547 2.094 0 3.93.586 5.508 1.758 1.594 1.156 2.938 2.898 4.031 5.227A24.981 24.981 0 0179.732 32c.422 2.063.61 4.258.562 6.586zm-3.632-8.156c0-.563-.141-.985-.422-1.266-.266-.281-.68-.422-1.243-.422-.562 0-.992.14-1.289.422-.28.281-.421.703-.421 1.266 0 .562.14.984.421 1.265.297.266.727.399 1.29.399.562 0 .976-.133 1.242-.399.28-.28.422-.703.422-1.265zm-5.579 6.422c0-1.422-.07-2.829-.21-4.22a36.439 36.439 0 00-.61-4.124 39.35 39.35 0 00-3.984 1.36c-1.172.468-2.196.968-3.07 1.5l2.39 9.679c1.25 0 2.328-.07 3.234-.211.907-.14 1.633-.367 2.18-.68.031-.562.047-1.117.047-1.664.016-.547.023-1.094.023-1.64zm6.54-.094c0-.594-.212-1.102-.633-1.524-.407-.422-.914-.632-1.524-.632-.594 0-1.11.203-1.547.609-.422.406-.632.922-.632 1.547 0 .61.21 1.117.632 1.523.438.407.953.61 1.547.61.61 0 1.117-.203 1.524-.61.422-.422.632-.93.632-1.523z" fill="#FFA800"/><path d="M107.664 18.805l-.164 1.992-2.719-.117-.234 1.945 2.742.234-.164 2.461-3.094-.351.047 1.992 2.813.469-.188 2.156-2.906-.234-.117 2.132 2.859.375c-.641 7.766-2.023 13.586-4.148 17.461-2.11 3.875-4.961 5.813-8.555 5.813a8.913 8.913 0 01-3.563-.727c-1.109-.484-2.171-1.21-3.187-2.18a13.18 13.18 0 01-2.344-2.953 15.216 15.216 0 01-1.476-3.539l1.687-1.078c.406.782.867 1.485 1.383 2.11.531.64 1.11 1.218 1.734 1.734.75.61 1.5 1.055 2.25 1.336a6.255 6.255 0 002.274.445c1.172 0 2.195-.343 3.07-1.031.89-.672 1.64-1.695 2.25-3.07.422-.953.766-2.032 1.031-3.235.266-1.203.438-2.515.516-3.937a9.161 9.161 0 01-2.555 1.148c-.906.25-1.867.375-2.883.375-2.937 0-5.46-1.031-7.57-3.093-2.094-2.063-3.14-4.563-3.14-7.5 0-2.922 1.046-5.415 3.14-7.477 2.11-2.063 4.633-3.094 7.57-3.094 1.188 0 2.313.18 3.375.54 1.063.343 2.055.85 2.977 1.523l.164-3.586 7.125.96zm-7.992 11.18c0-.75-.094-1.454-.281-2.11a7.065 7.065 0 00-.868-1.922c-.421-.656-.93-1.148-1.523-1.476a3.87 3.87 0 00-1.945-.493c-.86 0-1.649.211-2.368.633-.703.422-1.343 1.063-1.921 1.922a8.763 8.763 0 00-1.149 2.414 8.872 8.872 0 00-.375 2.578c0 .766.086 1.492.258 2.18a6.43 6.43 0 00.844 1.852c.453.671.969 1.171 1.547 1.5a3.872 3.872 0 001.945.492c.844 0 1.625-.211 2.344-.633.734-.438 1.382-1.086 1.945-1.945a9.88 9.88 0 001.148-2.391 8.463 8.463 0 00.399-2.602zm-2.227.562c0 .797-.289 1.484-.867 2.062-.562.578-1.258.868-2.086.868-.781 0-1.453-.29-2.015-.868-.563-.593-.844-1.28-.844-2.062 0-.781.289-1.453.867-2.016.578-.578 1.242-.867 1.992-.867.797 0 1.485.281 2.063.844.593.562.89 1.242.89 2.039z" fill="#FF6B00"/><path d="M127.839 22.46a45.28 45.28 0 00-2.227 5.485 39.101 39.101 0 00-1.359 5.578l-1.899-.796a54.446 54.446 0 012.133-6.094 38.655 38.655 0 012.648-5.203l.704 1.03zm8.507 20.04l-7.781-1.031.656-5.485c-1.172 1.735-2.429 3.032-3.773 3.891-1.344.86-2.774 1.29-4.289 1.29-1.875 0-3.414-.696-4.617-2.087-1.203-1.39-2.078-3.484-2.625-6.281l1.851-.469-.117-1.664-2.039.586-.398-2.156 2.062-.586-.117-1.547-2.274.516-.468-2.344 2.39-.516-.234-1.617-2.438.469-.328-1.805 8.93-1.547c-.078 3.86-.141 6.781-.188 8.766a828.706 828.706 0 00-.046 3.117c0 1.86.234 3.25.703 4.172.468.906 1.172 1.36 2.109 1.36 1 0 2.039-.485 3.117-1.454 1.078-.969 2.188-2.414 3.328-4.336l1.266-10.945 4.289-.235 1.031 21.938z" fill="#00BE9C"/><path d="M154.716.875L149.935 41l-7.43-.727.352-2.132 2.883.398.117-4.289-3.281-.21.164-1.946 3.117.047.07-4.102-3.422-.14.235-1.735h3.234l.07-4.5-3.703-.234.235-2.344 3.515.633v-3.844l-3.515-.398.281-1.922 3.304-.07.047-4.055-3.82-.188.422-2.203 3.398.352.118-3.82-4.055-.305.305-2.391h12.14z" fill="#96CB00"/><path d="M170.414.875L165.633 41l-7.43-.727.352-2.132 2.883.398.117-4.289-3.282-.21.165-1.946 3.117.047.07-4.102-3.422-.14.235-1.735h3.234l.07-4.5-3.703-.234.234-2.344 3.516.633v-3.844l-3.516-.398.282-1.922 3.304-.07.047-4.055-3.82-.188.422-2.203 3.398.352.117-3.82-4.054-.305.304-2.391h12.141z" fill="#7F2CD2"/><path d="M190.284 23c0 1.297-.281 2.266-.844 2.906-.562.625-1.406.938-2.531.938-1.016 0-1.781-.188-2.297-.563-.5-.39-.75-.968-.75-1.734 0-.375.102-.711.305-1.008.203-.312.507-.578.914-.797l.679.492a1.78 1.78 0 00-.257.375.652.652 0 00-.094.328c0 .313.094.547.281.704.188.14.461.21.82.21.5 0 .868-.117 1.102-.351.234-.25.352-.633.352-1.148 0-.407-.11-.774-.329-1.102-.203-.328-.515-.61-.937-.844a4.029 4.029 0 00-1.102-.422c-.39-.093-.82-.14-1.289-.14-.593 0-1.133.078-1.617.234-.469.14-.914.36-1.336.656a3.122 3.122 0 00-1.008 1.172 3.47 3.47 0 00-.328 1.524c0 .547.211 1.086.633 1.617.422.515 1.039 1.031 1.852 1.547 1.468.937 2.586 1.648 3.351 2.133.781.484 1.195.75 1.242.796.844.704 1.469 1.47 1.875 2.297.407.813.61 1.711.61 2.696 0 1.312-.25 2.5-.75 3.562-.485 1.063-1.235 1.984-2.25 2.766a10.087 10.087 0 01-3.117 1.64c-1.141.375-2.391.563-3.75.563-.891 0-1.743-.11-2.555-.328a9.817 9.817 0 01-2.367-.938 8.479 8.479 0 01-2.063-1.547 8.605 8.605 0 01-1.453-2.086l1.734-1.617c.719 1.344 1.602 2.344 2.649 3 1.047.657 2.25.985 3.609.985 1.235 0 2.242-.36 3.024-1.078.797-.735 1.195-1.704 1.195-2.907a5.12 5.12 0 00-.539-2.273c-.344-.75-.875-1.477-1.594-2.18-.656-.578-1.32-1.156-1.992-1.734l-2.016-1.735c-.703-.718-1.234-1.468-1.593-2.25a5.812 5.812 0 01-.539-2.46c0-1.047.226-1.985.679-2.813.453-.828 1.117-1.555 1.992-2.18a7.835 7.835 0 012.555-1.195c.953-.25 1.984-.375 3.094-.375.922 0 1.758.086 2.508.258.75.156 1.414.39 1.992.703.765.406 1.328.922 1.687 1.547.375.625.563 1.343.563 2.156zm-12.563 10.64a2.78 2.78 0 01-.843 2.04 2.792 2.792 0 01-2.016.82c-.781 0-1.453-.281-2.016-.844-.562-.562-.843-1.234-.843-2.015 0-.782.281-1.453.843-2.016.563-.563 1.235-.844 2.016-.844.781 0 1.453.282 2.016.844.562.563.843 1.234.843 2.016z" fill="#E74D1C"/></svg>
